/* XPM */
static char *b80a335c0f624c8ac765d029c001f1c4VFa4YrmmI0o1wUpp[] = {
/* columns rows colors chars-per-pixel */
"80 80 220 2 ",
"   c #010102",
".  c #080705",
"X  c #0D0D0D",
"o  c #170F04",
"O  c #0C1608",
"+  c #1B1206",
"@  c #181B09",
"#  c #0F0E11",
"$  c #141413",
"%  c #181917",
"&  c #1B1C1B",
"*  c #261A0A",
"=  c #201F1C",
"-  c #132406",
";  c #142409",
":  c #172A08",
">  c #1E310A",
",  c #1F281A",
"<  c #34240B",
"1  c #3E2B0F",
"2  c #22350F",
"3  c #233B0A",
"4  c #2D2314",
"5  c #253915",
"6  c #252524",
"7  c #292727",
"8  c #272826",
"9  c #282926",
"0  c #2B2B2A",
"q  c #2E3E21",
"w  c #34322E",
"e  c #343432",
"r  c #3D3E3A",
"t  c #443215",
"y  c #4E3714",
"u  c #563D18",
"i  c #4E3C22",
"p  c #014503",
"a  c #034A03",
"s  c #085205",
"d  c #1A530A",
"f  c #175617",
"g  c #26410C",
"h  c #28440D",
"j  c #365A0E",
"k  c #2B4411",
"l  c #2D4A14",
"z  c #344716",
"x  c #285715",
"c  c #355A11",
"v  c #385817",
"b  c #016603",
"n  c #016902",
"m  c #0A6C04",
"M  c #096C0A",
"N  c #156D03",
"B  c #1B6F08",
"V  c #017C03",
"C  c #0D7E04",
"Z  c #0E700F",
"A  c #137106",
"S  c #197304",
"D  c #1C7808",
"F  c #1D7809",
"G  c #296E0D",
"H  c #39620D",
"J  c #3E680E",
"K  c #2C760A",
"L  c #227A0A",
"P  c #29790A",
"I  c #31790C",
"U  c #397C0B",
"Y  c #2B6F14",
"T  c #3B6312",
"R  c #3B6716",
"E  c #247812",
"W  c #287F12",
"Q  c #387715",
"!  c #334622",
"~  c #314D22",
"^  c #3F403E",
"/  c #3C4839",
"(  c #59461C",
")  c #61461D",
"_  c #66491D",
"`  c #684A1E",
"'  c #61531E",
"]  c #476718",
"[  c #457512",
"{  c #447B11",
"}  c #497C14",
"|  c #45751E",
" . c #49731C",
".. c #4B7F1A",
"X. c #57721C",
"o. c #61601E",
"O. c #52482E",
"+. c #41423E",
"@. c #484638",
"#. c #664B26",
"$. c #6C4F23",
"%. c #715325",
"&. c #7A5827",
"*. c #7D5A26",
"=. c #63523C",
"-. c #4A6E24",
";. c #706A25",
":. c #3E4040",
">. c #434442",
",. c #464944",
"<. c #494947",
"1. c #4A4B49",
"2. c #4E514B",
"3. c #51534E",
"4. c #545651",
"5. c #565952",
"6. c #595C56",
"7. c #5C5E5A",
"8. c #5E615B",
"9. c #60635D",
"0. c #646662",
"q. c #666863",
"w. c #686A65",
"e. c #6C6E69",
"r. c #815D27",
"t. c #84622A",
"y. c #8C652C",
"u. c #8D692E",
"i. c #91692D",
"p. c #976E32",
"a. c #9E7333",
"s. c #A37735",
"d. c #A47835",
"f. c #AB7C36",
"g. c #AD7E38",
"h. c #B07F38",
"j. c #0C820D",
"k. c #138106",
"l. c #1D8609",
"z. c #22870A",
"x. c #2B810D",
"c. c #248A0D",
"v. c #288B0F",
"b. c #32850C",
"n. c #3F800E",
"m. c #35890E",
"M. c #3B8D0E",
"N. c #3F920F",
"B. c #2A8312",
"V. c #2B8D11",
"C. c #368414",
"Z. c #348B12",
"A. c #3B8D13",
"S. c #2F9012",
"D. c #3C9413",
"F. c #3A9617",
"G. c #43830D",
"H. c #4B840D",
"J. c #41890E",
"K. c #4C8A0C",
"L. c #45950F",
"P. c #4D950D",
"I. c #47980F",
"U. c #4B9B0F",
"Y. c #50950D",
"T. c #529E0E",
"R. c #478513",
"E. c #4B8411",
"W. c #4A8C13",
"Q. c #528A18",
"!. c #538B1B",
"~. c #449313",
"^. c #499616",
"/. c #439A15",
"(. c #4A9B11",
"). c #419D1B",
"_. c #529D12",
"`. c #55921C",
"'. c #59951E",
"]. c #54991B",
"[. c #618D1F",
"{. c #52A00E",
"}. c #47A11B",
"|. c #4BA219",
" X c #54A212",
".X c #59A614",
"XX c #5EAD16",
"oX c #53A719",
"OX c #5BA51B",
"+X c #55A91A",
"@X c #5DAC1C",
"#X c #5EB01D",
"$X c #61A91A",
"%X c #61AE1A",
"&X c #65B51D",
"*X c #68B71D",
"=X c #67B81D",
"-X c #68B81D",
";X c #4F8621",
":X c #568623",
">X c #599223",
",X c #688328",
"<X c #6F9528",
"1X c #5BA722",
"2X c #5EB121",
"3X c #61A523",
"4X c #63AE22",
"5X c #69A72C",
"6X c #62B222",
"7X c #6AB422",
"8X c #67BC24",
"9X c #6BB922",
"0X c #6DB52A",
"qX c #6FBB29",
"wX c #71BB2A",
"eX c #B38239",
"rX c #B9863B",
"tX c #BE8A3E",
"yX c #C48E3F",
"uX c #C38E40",
/* pixels */
"yXyXyXyXyXyXyXyXyXyXyXyXyXyXyXyXyXyXyXyXyXyXyXyXyXyXyXyXyXyXyXyXyXyXyXyXyXyXyXyXyXyXyXyXyXyXyXyXyXyXyXyXyXyXyXyXyXyXyXyXyXyXyXyXyXyXyXyXyXyXyXyXyXyXyXyXyXyXyXyX",
"yXyXyXyXyXyXyXyXyXyXyXyXyXyXyXyXyXyXyXyXyXyXyXyXyXyXyXyXyXyXyXyXyXyXyXyXyXyXyXyXyXyXyXyXyXyXyXyXyXyXyXyXyXyXyXyXyXyXyXyXyXyXyXyXyXyXyXyXyXyXyXyXyXyXyXyXyXyXyXyX",
"yXyXyXyXyXyXyXyXyXyXyXyXyXyXyXyXyXyXyXyXyXyXyXyXyXyXyXyXuXyXyXyXyXyXyXyXyXyXyXyXyXyXyXyXyXyXyXyXyXyXyXyXyXyXyXyXyXyXyXyXyXyXyXyXyXyXyXyXyXyXyXyXyXyXyXyXyXyXyXyX",
"yXyXyXyXyXyXyXyXyXyXyXyXyXyXyXyXyXyXyXyXyXyXyXyXyXyXyXyXuXr.< < < < < < < < < < < < < < < < < _ yXyXyXyXyXyXyXyXyXyXyXyXyXyXyXyXyXyXyXyXyXyXyXyXyXyXyXyXyXyXyXyX",
"yXyXyXyXyXyXyXyXyXyXyXyXyXyXyXyXyXyXyXyXyXyXyXyXyXyXyXyXyX&.                                  u yXyXyXyXyXyXyXyXyXyXyXyXyXyXyXyXyXyXyXyXyXyXyXyXyXyXyXyXyXyXyXyX",
"yXyXyXyXyXyXyXyXyXyXyXyXyXyXyXyXyXyXyXyXyXyXyXyXyXyXtX&.*.X.>XC.b M `.`.G b Q '.`.`.`.x p x ] ] &.*.yXyXyXyXyXyXyXyXyXyXyXyXyXyXyXyXyXyXyXyXyXyXyXyXyXyXyXyXyXyX",
"yXyXyXyXyXyXyXyXyXyXyXyXyXyXyXyXyXyXyXyXyXyXyXyXyXyXrX  . '.-X|.V C 8X-Xv.V /.*X=X*X-XY a K H.{     yXyXyXyXyXyXyXyXyXyXyXyXyXyXyXyXyXyXyXyXyXyXyXyXyXyXyXyXyXyX",
"yXyXyXyXyXyXyXyXyXyXyXyXyXyXyXyXyXyXyXyXyXyXyXyXrXf.s.-.-.OX*X|.V C =X-Xv.V /.7X-X-X-XY s K H.} l z s.d.rXyXyXyXyXyXyXyXyXyXyXyXyXyXyXyXyXyXyXyXyXyXyXyXyXyXyXyX",
"yXyXyXyXyXuXuXuXyXyXyXyXyXyXyXyXyXyXyXyXyXyXyXyXp.  h 9X-X-X=X|.V C 9X*Xv.V /.*X-X*X&XW n K H.H.E.E.;   i.yXyXyXyXyXyXyXyXyXyXyXyXyXyXyXyXyXyXyXyXyXyXyXyXyXyXyX",
"yXyXyXyXyXuXuXuXyXuXyXyXuXuXuXyXyXyXyXyXyXyXyXyXi.O h *X-X-X=X|.V C 9X-Xv.V /.-X-X*X&Xx.b I K.H.H.E.;   i.yXyXyXyXyXyXyXyXyXyXyXyXyXyXyXyXyXyXyXyXyXyXyXyXyXyXyX",
"yXyXyXyXyXyXuXuXt.t t t t t t tXyXyXyXyXyXyX%.t X.7X&X*X-X-X=X|.V C 9X-Xv.V F.*X-X-X-XW b ~.*X%XH.E.2 X i.yXyXyXyXyXyXyXyXyXyXyXyXyXyXyXyXyXyXyXyXyXyXyXyXyXyXyX",
"yXyXyXyXyXyXuXuX%.    # # .   rXyXyXyXyXyXyX_   ..8X*X*X*X=X=XoXV C 9X-Xv.V /.*X-X-X&XW b ^.9X%XH.Q.: X i.yXyXyXyXyXyXyXyXyXyXyXyXyXyXyXyXyXyXyXyXyXyXyXyXyXyXyX",
"yXyXyXyXuXuXr.r.,X`.;X>X>X>X[.t.t.f.yXyXyXyX_   ..*X*X*X-X}.F.F.oXoX-X-XV.V /.*X*X*X&XB.n ~.*X0XQ.!.; . u.yXyXyXyXyXyXyXyXyXr.t.r.t.h.yXyXyXyXyXyXyXyXyXyXyXyXyX",
"yXyXyXyXyXtX*   ].-XqXwXwX-X-Xl   i.yXyXyXyX_   ..*X*X*X=XS.j.D.*X*X*X-Xv.V /.9X=X=X*XW b ~.7X0XQ.!.;   y.yXyXyXyXyXyXyXyXyX*       p.yXyXyXyXyXyXyXyXyXyXyXyXyX",
"yXyXyXyXg.g.] v 3X9X0X1X1X*X*Xh   i.yXyXyXyX_   ..=X*X*X-XS.j.D.*X*X*X-XF.Z.).+X@X*X*XW n ~.*X7X!.!.;   y.yXyXyXyXyXyXtXf.eXz h g g y.g.eXyXyXyXyXyXyXyXyXyXyXyX",
"yXyXyXs.  > 7X9XqXwX|.M m  X{.3   i.yXyXyXyX_   ..*X*X*X=XS.V D.*X*X*X*X-X-X|.V l.*X*XW n ~.9X&XH.E.;   y.yXyXyXyXyXyXa.  @ } H.E.H.j . y yXyXyXyXyXyXyXyXyXyXyX",
"yXyXyXa.  > 7X9XwX9X].n m  X X>   i.yXyXyXyX'   R.7X*X*X*XZ.V F.=X*X*X*X*X-X|.V l.*X*XB.M ~.7X6XH.E.-   y.yXyXyXyXyXuXa.# : E.R.H.H.j   y yXyXyXyXyXyXyXyXyXyXyX",
"yXyXyXa.  2 0XqX$X XA.n m  X X3   i.yXyXyXyX`   ..-X*X*X-XS.V D.=X*X*X*X*X-X(.V l.7X*X&X&X/.m B H.E.-   i.yXyXyXuXr.t X.4X1XM m n.H.j   y yXyXyXyXyXyXyXyXyXyXyX",
"yXyXyXa.. 2 0XqX.X{.M.n m  X X3   u.yXyXyXyX`   ..=X*X*X-XS.V F.=X*X*X*X*X*X|.V l.*X*X*X*X~.b N H.E.;   y.yXyXyXuX%.  | -X4Xm b n.H.j   y yXyXyXyXyXyXyXyXyXyXyX",
"yXyXyXa.# > 7X9XD.I C.~./.{. XR.R.;.*.*.r.r.,X>X3X-X*X=X*XS.V F.-X*X*X*X*X*X|.V l.*X=X=X7X/.n N E.E.;   y.yXyXyXuX%.  | =X&Xn b { H.{ ] X.r.r.yXyXyXyXyXyXyXyXyX",
"yXyXuXa.$ 2 7X&XB.n b.{.{.T.{.{.{.Q         3X-X-X-X-X=X=XS.V D.-X*X*X*X*X*X|.V l.*X*X*X*X/.b N H.Q.;   i.uXyXyXuX%.  | =X#Xm n U H.H.E.{     tXyXyXyXyXyXyXyXyX",
"yXyXuXa.$ > $X@XL n b.{.T.N.~.U.{.{ h h h h ;X].OX=X=XoXoXF.D.|.*X*X*X*X*X*X|.V l.=X*X*X*X/.b N H.H.;   y.uXyXyXuX%.  | -X@Xm n G.P.K.H.}     tXyXyXyXyXyXyXyXyX",
"yXyXyXa.  : _. XL n b.{.U.n b I.{.Y.H.H.H.H.d a W.=X#XV j.oX-X-X*X*X*X*X*X*X|.V l.&X*X*X*X/.n N H.H.-   i.uXyXyXuX%.  | =X#Xn n ~.{.P.H.{     tXyXyXyXyXyXyXyXyX",
"yXyXyXa.  : _.{.L n b.{.U.n n /.T.P.H.H.R.J.d a W.=X#XV V oX*X*X*X*X*X*X-X=X|.V l.*X*X*X*X/.b N E.Q.-   y.uXyXyXuX%.  [ &X#Xm n P.T.P.H.}     tXyXyXyXyXyXyXyXyX",
"yXyXyXa.  : T.{.L n b.T.{. X|.B n I E.{ p p 1XqX8X*X@XV V +X*X*X&X-X*X*X*X*X|.V l.*X*X*X*X/.n N H.H.E.E.]   . .   <X0X%X X(.n n L.{.P.H.[     tXyXyXyXyXyXyXyXyX",
"yXyXyXa.  : _.T.L n b.{.{.{. XF n I H.{ p a $X-X*X*X#XV V +X*X*X*X*X*X-X*X*X|.V l.*X&X-X-X~.n N E.H.E.H.j         '.=XXXT.(.n n L.{.P.H.}     tXyXyXyXyXyXyXyXyX",
"yXyXyXa.  - K.K.G.U I L L L F D.L.W.H.{ p p $X*X|.v.S.+X+X&X*X*X*X*X*X&X-X-X|.V l.*X*X*X-X/.b S _.T.l 3 ] '.].'.'..X.X.X{.U.n n L.{.P.E.[     tXyXyXyXyXyXyXyXyX",
"yXyXyXa.  - E.H.H.H.U n n n b P.{.P.H.{ p a OX-X}.V z.8X-X-X-X-X*X-X*X*X-X-X(.V l.&X*X*X*X/.n S _. X:   [ -X-X-X-XXX X{.{.U.n n P. XP.H.}     tXyXyXyXyXyXyXyXyX",
"yXyXyXeXt.t.] T H T H K P G K Z.M.J.H.{ p p @X-X/.V z.-X-X-X-X-X*X*X*X*XoX}.}.F.).-X-X*X*X_.B.b.A.A.|  .:X#X%XXX$X/.M.N.N.Z.b.b.I.P.K.H...  X tXyXyXyXyXyXyXyXyX",
"yXyXyXyXyXtX*       j H.H.H.H.B n K H.{ p p $X-X/.V z.-X-X-X-X-X*X*X*X9Xv.V /.-X-X*X-X*X*X%X{.(.n n @X*XXX{.{.{. XF n n n A  X{.K.E.E.H...# . tXyXyXyXyXyXyXyXyX",
"yXyXyXyXyXtX` ) ) ( o.{ { { { B N I H.{ p p OX-X/.V z.-X=X-XwXqX9X-X*X-Xv.V /.=X-X*X*X*X*XXX{.(.n n @X&X%XT.T.(.U.z.A m N D (.I.R.G.E.!.|   . tXyXyXyXyXyXyXyXyX",
"yXyXyXyXyXyXyXyXyXyXs.        [ R.H.R.{ a p OX-X}.V z.-X=X8XwXwX9X*X*X-Xv.V /.*X-X*X*X*X*XXXT.(.n n I.{.{. X(.n b L.{.(.{.(.m n n M Q Q.:X    tXyXyXyXyXyXyXyXyX",
"yXyXyXyXyXyXyXyXyXyXs.        [ H.E.R.{ p p OX*X/.V z.8X-XwXqX-X*X*X*X=Xv.V /.*X-X*X*X*X*XXX{.(.n n I.{.T.{.(.n b L.{.{.{.U.n n n M I :X:X    tXyXyXyXyXyXyXyXyX",
"yXyXyXyXyXyXyXyXyXyXtXeXeXh.h.' 3 3 3 l 1X1X9X*X&X@XoXV.F.4XqX*X*X*X*X9Xv.V /.*X=X*X*X*X*XXX{.I.n b I.{.~.L L /.I.U.T.~.L L G.{ n.G.R k ( eXeXyXyXyXyXyXyXyXyXyX",
"yXyXyXyXyXyXyXyXyXyXyXyXuXuXyX_       k *X*X-X-X=X=X2Xj.j.1X-X-X*X*X*X-Xv.V /.*X=X*X*X*X*XXX{.I.n n U.{.M.n m {.{.T.{.M.n N H.H.H.H.v   y uXuXuXyXyXyXyXyXyXyXyX",
"yXyXyXyXyXyXyXyXyXyXyXyXuXuXyXs.i.i.u.u...Q.4X*X9X9X0Xj.V +X-X&X*X*X*X-Xv.V /.*X=X*X*X*X*XXX{./.n n I.{.~.b.x.M.M.M.M.b.K K H.E.] j ;.u.a.uXuXuXyXyXyXyXyXyXyXyX",
"yXyXyXyXyXyXyXyXyXyXyXyXyXyXyXyXuXyXyXrX+   3X-XwXqX6XV j.oX=X=X*X*X=X=Xv.V /.*X-X=X-X*X&XXX{.U.b n I.{.{.{. Xn n b b K H.H.H.E.3   p.uXyXyXyXyXyXyXyXyXyXyXyXyX",
"yXyXyXyXyXyXyXyXyXyXyXyXyXyXyXyXuXuXyXrX+   5X7X9XwX@XV V .X=X=X*X*X-X=Xv.C /.*X&X-X-X*X&XXX{.I.n n U.{.{.{.(.m m m m K { } } } ( y a.uXyXyXyXyXyXyXyXyXyXyXyXyX",
"yXyXyXyXyXyXyXyXyXyXyXyXyXyXyXyXyXyXyXrX+ $ 5XwX-X-X#XV V +X*X*X*X*X*X=X*X7X}.V l.-X=X.X{.{.{./.b n I.{.Y.H.H.H.E.G.J.T . . . O eXyXyXyXyXyXyXyXyXyXyXyXyXyXyXyX",
"yXyXyXyXyXyXyXyXyXyXyXyXyXyXyXyXyXyXyXrX+ # 5XwX-X-X@XV V .X-X*X*X*X*X*X*X*X|.V l.=X=X.X{.{.{.(.n n I.{.Y.H.H.H.H.H.H.]       . g.yXyXyXyXyXyXyXyXyXyXyXyXyXyXyX",
"yXyXyXyXyXyXyXyXyXyXyXyXyXyXyXyXyXyXyXrX+ . 5XqX*X*XXXV V oX-X-X*X*X*X*X=X=X|.V l.-X=X{.{.{.{.(.n n R.K.K.H.R.h k k k y.f.g.f.g.yXyXyXyXyXyXyXyXyXyXyXyXyXyXyXyX",
"yXyXyXyXyXyXyXyXyXyXyXyXyXyXyXyXyXyXyXrX+   3X=X*X*X#XV V .X-X&X*X*X*X*X=X=X|.V l.=X-X.X{.{.{.U.n n G.H.H.H.}         t.uXyXyXyXyXyXyXyXyXyXyXyXyXyXyXyXyXyXyXyX",
"yXyXyXyXyXyXyXyXyXyXyXyXyXyXyXyXyXyXyXrXo   3X-X*X*X@XV V oX-X*X*X*X*X-XoX|.).D./.=X-X.X{.U.M.Z.x.x.H.H.[ T o.u.y.i.i.g.yXyXyXyXyXyXyXyXyXyXyXyXyXyXyXyXyXyXyXyX",
"yXyXyXyXyXyXyXyXyXyXyXyXyXyXyXyXyXyXyXrXo   3X8X*X-X#XV V @X-X*X*X*X*X9Xz.j./.=X=X-X*X.X{.m.n S {.{.K.H.H   < yXuXuXuXuXyXyXyXyXyXyXyXyXyXyXyXyXyXyXyXyXyXyXyXyX",
"yXyXyXyXyXyXyXyXyXyXyXyXyXyXyXyXyXyXyXrXo   3X*X=X6X2Xk.k.+X*X*X*X*X*X9Xv.V /.=X=X-X*X X{.M.n S {.{.K.H.H   1 yXyXyXyXyXyXyXyXyXyXyXyXyXyXyXyXyXyXyXyXyXyXyXyXyX",
"yXyXyXyXyXyXyXyXyXyXyXyXyXyXyXyXyXyXyXrXo   3X-X/.V l.8X-X-X*X*X*X*X=X9Xv.V /.=X-X-X*X.X{.m.n S .X{.K.H.H   1 yXyXyXyXyXyXyXyXyXyXyXyXyXyXyXyXyXyXyXyXyXyXyXyXyX",
"yXyXyXyXyXyXyXyXyXyXyXyXyXyXyXyXyXyXyXrXo   3X*X/.V z.-X-X-X*X*X*X*X*X=Xv.j.D.=X=X-X*X.X{.m.n S {.{.K.H.H   t yXyXyXyXyXyXyXyXyXyXyXyXyXyXyXyXyXyXyXyXyXyXyXyXyX",
"yXyXyXyXyXyXyXyXyXyXyXyXyXyXyXyXyXyXyXrXo   3X*X(.V z.-X-X-X-X&X*X*X*X=Xx.n m..X.X-X*X{.{.b.n S {.T.K.H.H   1 yXyXyXyXyXyXyXyXyXyXyXyXyXyXyXyXyXyXyXyXyXyXyXyXyX",
"yXyXyXyXyXyXyXyXyXyXyXyXyXyXyXyXyXyXyXrXo   3X*X(.V z.9X=X*X*X*X-X-X-X-Xz.n b.{.{.-X-X.X{.b.n S {..XW.H.H   1 yXyXyXyXyXyXyXyXyXyXyXyXyXyXyXyXyXyXyXyXyXyXyXyXyX",
"yXyXyXyXyXyXyXyXyXyXyXyXyXyXyXyXyXyXyXrXo   $X*X/.V z.9X-X*X*X*X-X=XXXXXL n b.{.{.XXXX{.{.Z.n S .XOX'.K.H   1 yXyXyXyXyXyXyXyXyXyXyXyXyXyXyXyXyXyXyXyXyXyXyXyXyX",
"yXyXyXyXyXyXyXyXyXyXyXyXyXuXyXyXyXyXyXrXo   3X*X/.V z.=X-X*X-X&X&X-X{.{.L n b.{..X{.{.{.T.m.n F OXOXQ.H.H   1 yXyXyXyXyXyXyXyXyXyXyXyXyXyXyXyXyXyXyXyXyXyXyXyXyX",
"yXyXyXyXyXyXyXyXyXyXyXtXtXrXtXyXyXyXyXrX+   3X*X(.V z.8X-X*X-X*X&X-X{.{.D n b.T.{.{.{.{.T.Z.n E OX.XK.H.H   t yXyXyXyXyXyXyXyXyXyXyXyXyXyXyXyXyXyXyXyXyXyXyXyXyX",
"yXyXyXyXyXyXyXyXyXyXs.        rXyXyXyXrX+   3X7X/.V z.8X-X*X*X*X-X*X{.{.D n m.{.{.{.{.{.T.Z.Z E OX.XK.H.H   1 yXyXyXyXyXyXyXyXyXyXyXyXyXyXyXyXyXyXyXyXyXyXyXyXyX",
"yXyXyXyXyXyXyXyXyXyXa.        rXyXyXyXrXo   3X8X).V z.-X=X*X-X=X-X*X{.{.D n b.{.{.{.{.{..XA.Z F  XT.K.H.H   1 yXyXyXyXyXyXyXyXyXyXyXyXyXyXyXyXyXyXyXyXyXyXyXyXyX",
"yXyXyXyXyXyXyXyXt.u =.8.8.9.9.O.u u u ' 5X1XZ.c.).2X2X-X*X*X*X%X{.{.{.{.D n b.{._.T. X.XOXA.Z S  X{.K.H.H   1 yXyXyXyXyXyXyXyXyXyXyXyXyXyXyXyXyXyXyXyXyXyXyXyXyX",
"yXyXyXyXyXyXyXyX&.  >.q.q.q.q.9       5 7X7Xc.V (.9X-X=X*X*X*X%X{.{.{.{.D n b.{.{. X XOX.XA.n S T.{.K.H.H   1 yXyXyXyXyXyXyXyXyXyXyXyXyXyXyXyXyXyXyXyXyXyXyXyXyX",
"yXyXyXyXyXyXa.p.=.<.4.q.q.q.w.1.,.e , z 7X9XB.V (.*X=X-X*X*X&X%X{.{.{. XD n m.{.OXOX_. X.X~.M.b.b.b.H.H.H   1 yXyXyXyXyXyXyXyXyXyXyXyXyXyXyXyXyXyXyXyXyXyXyXyXyX",
"yXyXyXyXyXyX4   6.w.q.q.q.q.q.w.q.2.8 ~ *X-Xc.V }.-X*X-X-X*X*X%X{.{.{.{.D n m. X$X1XOX{.{.T.{.I.b n G.H.H   1 yXyXyXyXyXyXyXyXyXyXyXyXyXyXyXyXyXyXyXyXyXyXyXyXyX",
"yXyXyXtXh.f.w w 6.q.q.q.q.q.q.q.q.5./ @.3X1XE M D.@X@X-X*X&X&XXX{.{.{.{.D n b. XOXOXOX{.{.{.{./.n n G.H.J 2 ( g.eXeXh.eXeXeXeXh.yXyXyXyXyXyXyXyXyXyXyXyXyXyXyXyX",
"yXyXyXs.$ % q.q.q.q.q.q.q.q.q.q.q.q.w.9.7 8 7 7 f V z.-X*X.X{.{.{.{.{.{.D n b.T.{. X XU.T.{.{.(.b n G.H.R.E...                  eXyXyXyXyXyXyXyXyXyXyXyXyXyXyXyX",
"yXyXyXs.  % w.q.q.q.q.q.q.q.q.q.w.w.w.9.6 6 9 9 f V l.-X=X.X{.{.{.{.T. XL n b.T.{.{.{.{.{.{._.I.n n G.H.H.H.E.                  eXuXuXuXyXyXyXyXyXyXyXyXyXyXyXyX",
"yXyXyXa.  % q.q.q.q.q.q.q.q.q.q.9.w.9.9.2.2.2.3./ ~ x @X.X{.{.{.{.(.L L L.L.(.{.{.T.{.{.T.{.{.(.b n l ! ! ! ! 7.6.6.6.6.6.6.1.1.#._ _ ` ` _ _ yXyXyXyXyXyXyXyXyX",
"yXyXyXs.  % 9.q.q.q.q.q.q.q.q.q.9.w.w.9.5.5.5.5.+.7 ! .X{.{.{.{.{.(.n b L.{.T.{.{.{.{.T.{.{._.(.n n q 8 9 9 0 q.q.q.q.q.w.9.5.5.9             tXyXyXyXyXyXyXyXyX",
"yXyXyXa.  % q.q.q.q.q.q.q.q.q.9.8.9.9.8.5.5.5.5.1./ +.| | ^.{.{.{.{.n b L.{.{.{.{.{.{.{. XW.| Q f f :.<.,.1.2.w.q.9.9.8.9.8.>.,.+.^ ^ ^ ^ r r a.d.rXyXyXyXyXyXyX",
"yXyXyXs.  % 0.w.q.q.q.w.q.q.w.8.5.5.5.5.5.5.5.5.5.5.3.6 9 E.{.{.{.(.n b L. XT.{.{.T.T.{.|.| 7 8 8 7 8.q.q.q.q.q.w.7.5.5.5.3.9 7 7.w.q.q.q.q.q.=   i.yXyXyXyXyXyX",
"yXrXrXa.6 7 0.q.q.q.9.w.w.9.9.5.5.5.5.5.5.5.5.5.5.5.3.0 w ..].(.{._.S S D.(.T.{. XT.T.^.;X-.e e e w 8.q.q.q.q.9.9.6.5.5.3.2.e e 8.q.q.0.0.0.w.&   p.yXyXyXyXyXyX",
"yX`   +.q.q.q.q.q.q.q.q.q.5.5.5.5.5.5.5.5.5.5.5.5.5.4.<.1.e 7 R  X X X XL n b.{.T.H.H.! 6 1.w.q.q.q.q.q.q.q.q.5.5.5.6.,.9 w 9.q.w.q.8.4.5.6.6.%   i.uXuXyXyXyXyX",
"yX_   +.q.q.q.q.q.q.q.q.9.8.5.5.5.5.5.5.5.5.5.5.5.5.4.,.<.e 7 R {.{.T.{.F b b._.T.E.} z 0 1.w.q.q.q.q.q.q.q.q.5.5.3.6.>.9 w w.w.q.q.9.8.8.7.6.%   p.uXuXyXyXyXyX",
"yX_   +.q.q.q.q.9.w.q.q.9.5.5.5.5.5.5.5.5.5.2.1.1.1.1.<.<.e 8 v K.W.K.K.S n I H.} 5 q 5.7.0.q.q.q.q.q.q.9.6.6.5.6.r w <.7.8.q.w.q.q.9.6.9.8.5.,.^ O.$.r.yXyXyXyX",
"yX_   ^ q.q.q.q.q.w.w.q.9.5.5.5.5.5.5.5.5.5.1.1.<.<.<.<.<.e 7 v H.H.H.H.S n K H.} 0 7 7.q.q.q.q.q.q.q.q.9.5.5.5.6.e 6 <.q.q.q.w.q.q.q.8.8.5.5.1.<.w   ( yXyXyXyX",
"yX_   ^ q.q.q.q.q.w.q.9.9.5.5.5.4.5.5.5.2.2.2.,.<.<.<.<.<.e 7 q c c c H d : d v v 3.2.9.q.q.q.q.q.q.8.8.8.5.5.5.6.e 7 <.q.q.8.7.8.q.q.9.5.5.5.1.<.^ e @.i.y.tXyX",
"yX_   ^ q.q.q.q.q.q.9.5.5.5.5.5.5.5.5.3.@.1.,.1.<.<.<.<.<.e 0 &                 = q.w.w.q.q.q.q.9.q.5.4.5.5.5.5.5.e 7 <.q.0.4.6.8.9.9.6.5.5.5.1.<.<.<.+.    rXyX",
"yX_   ^ q.q.q.q.q.0.7.5.5.5.5.5.4.4.4.3.<.<.<.<.<.<.1.1.<.0 6 i $.$.$.$.%.$.y   & q.q.q.q.q.q.q.q.9.8.5.5.5.5.2.2./ w 2.q.q.5.8.8.8.3.4.4.3.5.1.1.<.<.+.    eXyX",
"yX_   +.q.q.q.q.6.4.5.5.5.5.5.5.4.4.<.<.<.<.<.<.<.<.,.1.<.6   y.yXyXyXyXyXyXs.  = q.q.q.q.q.q.9.5.5.5.5.5.5.5.6 6 8.w.q.w.e.7.8.8.5.3.,.1.1.,.,.<.,.<.+.    rXyX",
"yX_   +.q.q.w.w.7.4.6.6.5.5.5.5.6.3.1.<.1.1.2.3.2.1.1.1.1.6   u.yXyXyXyXyXyXa.  = w.q.q.w.w.q.q.5.5.5.5.5.5.5.6 8 6.w.w.w.w.9.7.5.5.3.1.1.1.1.1.1.1.1.<.    rXyX",
"yXtXyXa.% % % % $ $ $ $ $ $ $ $ $ $ X # X # $ & & $ # # # f.uXuXyXyXyXyXyXyXyXyXrX4 % % % % % % $ $ $ $ $ $ $ . . % & = 6 % $ $ $ $ $ X X X X # # # # u tXyXyXyX",
"yXyXyXs.                                    # # .         g.uXuXyXyXyXyXyXyXyXyXrX+ .                               X X # X                           ( yXyXyXyX",
"yXyXyXrXs.s.s.s.s.s.d.s.d.d.d.s.s.d.d.d.d.d.d.d.d.d.d.s.s.tXuXuXyXyXyXyXyXyXyXuXuXd.s.s.s.s.s.s.s.s.s.s.d.s.s.d.d.d.f.f.f.d.d.d.d.d.d.d.d.d.s.s.d.d.d.f.yXyXyXyX",
"yXyXyXyXyXyXyXyXyXyXyXyXyXyXyXyXyXyXyXyXyXyXyXyXuXuXyXyXyXyXuXuXyXyXyXyXyXyXuXuXuXuXuXuXyXyXyXyXyXyXyXyXyXyXyXyXuXuXuXyXuXyXyXyXyXyXyXyXyXyXyXyXyXyXyXyXyXyXyXyX",
"yXyXyXyXyXyXyXyXyXyXyXyXyXyXyXyXyXyXyXyXyXyXyXyXyXuXyXyXyXyXyXyXyXyXyXyXyXyXuXuXuXuXuXuXyXyXyXyXyXyXyXyXyXyXyXyXuXuXuXyXuXyXyXyXyXyXyXyXyXyXyXyXyXyXyXyXyXyXyXyX"
};
