/* XPM */
static char *_479fa27693c4efec70cef8cd5455269EM2XokVnc9YEuTNa[] = {
/* columns rows colors chars-per-pixel */
"80 80 236 2 ",
"   c #001A27",
".  c #001D34",
"X  c #002429",
"o  c #00282E",
"O  c #052B36",
"+  c #012C35",
"@  c #1C2E31",
"#  c #083737",
"$  c #05323A",
"%  c #0D353C",
"&  c #0D393B",
"*  c #1E3135",
"=  c #133B35",
"-  c #12353D",
";  c #1C343B",
":  c #133A3D",
">  c #1A393E",
",  c #222F36",
"<  c #392C36",
"1  c #213135",
"2  c #24373C",
"3  c #2B3B3D",
"4  c #343E3E",
"5  c #57011E",
"6  c #691E1F",
"7  c #5B0C24",
"8  c #5D0629",
"9  c #56122F",
"0  c #5C1429",
"q  c #5D1B29",
"w  c #581A32",
"e  c #610926",
"r  c #630E2C",
"t  c #621126",
"y  c #681A27",
"u  c #63122B",
"i  c #641A2C",
"p  c #641732",
"a  c #5A232C",
"s  c #592231",
"d  c #572A31",
"f  c #6C2E28",
"g  c #792822",
"h  c #783A29",
"j  c #622C32",
"k  c #623134",
"l  c #6C3738",
"z  c #733935",
"x  c #0F463B",
"c  c #15473E",
"v  c #26493B",
"b  c #2F543E",
"n  c #28693D",
"m  c #376B38",
"M  c #3A6C3A",
"N  c #3C743C",
"B  c #4E463D",
"V  c #43733F",
"C  c #0E3540",
"Z  c #0E3841",
"A  c #133541",
"S  c #193742",
"D  c #133941",
"F  c #1B3942",
"G  c #293C41",
"H  c #353E41",
"J  c #154241",
"K  c #184042",
"L  c #164B42",
"P  c #1B4A44",
"I  c #1D5445",
"U  c #1C5A45",
"Y  c #1B5A48",
"T  c #1B5B49",
"R  c #3D4F48",
"E  c #245645",
"W  c #235C4A",
"Q  c #1E6545",
"!  c #176847",
"~  c #1D6946",
"^  c #1D654A",
"/  c #1E6A49",
"(  c #216645",
")  c #296747",
"_  c #226B45",
"`  c #296D46",
"'  c #22664A",
"]  c #21694A",
"[  c #326945",
"{  c #3A6C41",
"}  c #2C7344",
"|  c #2B7448",
" . c #337945",
".. c #236850",
"X. c #494946",
"o. c #564E42",
"O. c #5A5549",
"+. c #5E564A",
"@. c #655849",
"#. c #715F4D",
"$. c #675E53",
"%. c #50674F",
"&. c #447743",
"*. c #73644D",
"=. c #696656",
"-. c #756858",
";. c #6D7B51",
":. c #78796F",
">. c #8B351E",
",. c #984328",
"<. c #994C33",
"1. c #A44A2E",
"2. c #BB582D",
"3. c #A74C31",
"4. c #A35B38",
"5. c #BD5932",
"6. c #A46C3F",
"7. c #AA793C",
"8. c #C55F2D",
"9. c #C15C33",
"0. c #CA6F35",
"q. c #D96B34",
"w. c #E7742E",
"e. c #EA752D",
"r. c #E36D3D",
"t. c #E67337",
"y. c #EC7533",
"u. c #B95C40",
"i. c #886C4A",
"p. c #9E7645",
"a. c #907049",
"s. c #92734C",
"d. c #9A754A",
"f. c #9B784C",
"g. c #866E56",
"h. c #966D58",
"j. c #8C7658",
"k. c #8D755B",
"l. c #937553",
"z. c #9B7C55",
"x. c #9A7358",
"c. c #92795C",
"v. c #9B7D5B",
"b. c #A3764B",
"n. c #AE754F",
"m. c #A8784A",
"M. c #A47754",
"N. c #AD7D52",
"B. c #3C853F",
"V. c #4B8D3E",
"C. c #5DAF3C",
"Z. c #5EB13E",
"A. c #61AF3F",
"S. c #61B03E",
"D. c #3D8444",
"F. c #3F8B47",
"G. c #3D8449",
"H. c #458645",
"J. c #448B45",
"K. c #438B49",
"L. c #508E42",
"P. c #4B9545",
"I. c #4D9A46",
"U. c #4C9649",
"Y. c #539D45",
"T. c #5A9B47",
"R. c #539B49",
"E. c #55A446",
"W. c #5AA545",
"Q. c #5DAB45",
"!. c #55A24A",
"~. c #5BA649",
"^. c #5CAA4A",
"/. c #5FB142",
"(. c #5FB04A",
"). c #62AF43",
"_. c #64A648",
"`. c #62AD49",
"'. c #62B043",
"]. c #62B149",
"[. c #A48F3E",
"{. c #C48E3F",
"}. c #EA8336",
"|. c #948850",
" X c #A98C49",
".X c #B3834C",
"XX c #BA874C",
"oX c #BE8D4D",
"OX c #A48157",
"+X c #AD8554",
"@X c #A4825A",
"#X c #AD865A",
"$X c #AD885D",
"%X c #B28356",
"&X c #BB8D53",
"*X c #B4835A",
"=X c #B38A5B",
"-X c #B68A59",
";X c #BA8C5C",
":X c #BC915C",
">X c #958560",
",X c #A78866",
"<X c #BA8963",
"1X c #BC9466",
"2X c #B99569",
"3X c #BA9979",
"4X c #B89A7A",
"5X c #C48F42",
"6X c #C88E45",
"7X c #C28F4B",
"8X c #C59045",
"9X c #C5924B",
"0X c #CB9748",
"qX c #D49A4B",
"wX c #C39253",
"eX c #C89451",
"rX c #C99552",
"tX c #CA9B57",
"yX c #C4955B",
"uX c #C8975C",
"iX c #D9A34B",
"pX c #DCA855",
"aX c #D9B653",
"sX c #E8B04E",
"dX c #F9B64C",
"fX c #ECB859",
"gX c #F4BB54",
"hX c #C29562",
"jX c #C39C6B",
"kX c #CEA56B",
"lX c #F7C44E",
"zX c #F9C24F",
"xX c #E1C250",
"cX c #F6C153",
"vX c #FAC352",
"bX c #F9C159",
/* pixels */
"{.{.{.{.{.{.{.{.{.{.{.{.{.{.{.{.{.{.{.{.{.{.{.{.{.{.{.{.{.{.{.{.{.{.{.{.{.{.{.{.{.{.{.{.{.{.{.{.{.{.{.{.{.{.{.{.{.{.{.{.{.{.{.{.{.{.{.{.{.{.{.{.{.{.{.{.{.{.{.{.",
"{.{.{.{.{.{.{.{.{.{.{.{.{.{.{.{.{.{.{.{.{.{.{.{.{.{.{.{.{.{.{.{.{.{.{.{.{.{.{.{.{.{.{.{.{.{.{.{.{.{.{.{.{.{.{.{.{.{.{.{.{.{.{.{.{.{.{.{.{.{.{.{.{.{.{.{.{.{.{.{.",
"{.{.{.{.{.{.{.{.{.{.{.{.{.{.{.{.{.{.{.{.{.{.{.{.{.{.{.{.{.{.{.{.{.{.{.{.{.{.{.{.{.{.{.{.{.{.{.{.{.{.{.{.{.{.{.{.{.{.{.{.{.{.{.{.{.5X{.{.{.{.{.{.{.{.{.{.{.{.{.{.",
"{.{.{.{.{.{.{.{.{.{.{.{.{.{.{.5X{.{.{.{.{.{.{.{.{.{.{.{.{.{.{.{.{.{.{.{.{.{.{.{.{.{.{.{.{.{.{.{.{.{.{.{.{.{.{.{.{.{.{.{.{.{.{.{.{.{.{.{.{.{.{.{.{.{.{.{.{.{.{.{.",
"{.{.{.{.{.{.{.{.{.{.{.{.{.{.{.{.{.{.{.{.{.{.{.{.{.{.{.{.{.{.7XXXXX5X{.{.{.{.5XXXXX7X5X{.{.{.{.{.{.{.{.{.{.{.{.{.{.{.{.{.5X{.{.{.{.{.{.{.{.{.{.{.{.{.{.{.{.{.{.{.",
"{.{.{.{.{.{.{.{.{.{.{.{.{.{.{.{.6X{.{.{.{.{.{.{.{.{.{.{.{.{.;X8 r N.{.{.{.{.eXl u M.{.{.{.{.{.{.{.{.{.{.{.{.{.{.{.{.{.{.{.{.{.{.{.{.{.{.{.{.{.{.{.{.{.{.{.{.{.5X",
"{.{.{.{.{.{.{.{.{.{.{.{.{.{.{.{.{.{.{.{.{.{.{.{.{.{.{.{.{.{.;X8 r N.{.{.{.{.yXl y M.{.6X{.{.{.{.{.{.{.5X{.{.{.{.{.{.{.{.{.{.{.{.{.{.{.{.{.{.{.{.{.{.{.{.{.{.{.{.",
"5X{.{.{.{.{.{.{.{.{.{.{.{.{.{.{.{.{.{.{.{.{.{.{.{.{.{.9XN.*XN.3.3.n.*XN.*X*X*XN.n.*XN.N.7X{.{.{.{.{.{.{.{.{.{.{.{.{.{.{.{.{.{.{.{.{.{.{.{.{.{.{.{.{.{.{.{.{.{.{.",
"{.{.{.{.{.{.{.{.{.{.{.{.{.{.{.{.{.{.{.{.{.{.{.{.{.{.{.wX0 e ,.y.y.3.8 7 7 7 f bXcX0X7 5 6.{.{.{.{.{.{.{.{.{.{.{.{.{.{.{.{.{.{.{.{.{.{.{.{.{.{.{.{.{.{.{.{.{.{.{.",
"{.{.8X{.{.{.{.{.{.{.{.{.{.{.{.{.{.{.{.{.{.{.{.{.{.{.{.wXq e ,.y.y.1.r 0 t 0 h cXcX0Xt 7 p.{.{.{.5X{.{.{.{.{.{.{.{.{.{.{.{.{.{.{.{.{.{.{.{.{.{.{.{.{.{.{.{.{.{.{.",
"{.{.{.{.{.{.{.{.{.{.{.*Xx.h.9X5X{.{.{.;Xx.h.;X{.{.{.{.wXq t 1.e.e.q.9.5.qXqXqXlXlX0Xu e m.{.{.{.{.{.{.{.{.{.{.{.{.{.{.{.{.{.{.{.{.{.{.5X{.{.{.{.{.{.{.{.5X{.{.{.",
"{.{.{.{.{.{.{.{.{.{.{.x.u j &X{.{.{.{..Xi r *X6X{.{.{.9Xq t ,.y.y.e.e.w.dXvXlXlXlX0Xt 7 b.{.{.{.{.{.{.{.{.{.{.{.{.{.{.{.{.{.{.{.{.{.{.{.{.{.{.{.{.{.{.{.{.{.{.{.",
"{.{.{.{.{.{.{.{.7XeXeXx.i f yXeXeXeXeX%Xy y *XeXeX5X{.wXl l <.y.y.y.e.e.gXzXlXcXvX0Xl l m.5X{.{.{.{.{.{.{.{.{.{.{.{.{.{.{.{.{.{.{.{.{.{.{.{.{.{.{.{.{.{.{.{.{.{.",
"{.{.{.{.{.{.{.{.m.k k 5.t.r.z j j j k b.fXfXb.j d yX{.{.wXeX<Xt y 2.y.w.dXzXfXf 6 x.eXeX6X{.{.5X{.{.{.{.{.{.{.{.{.{.{.{.{.{.{.5X{.{.{.{.{.{.{.{.{.{.{.{.{.{.{.{.",
"{.{.{.{.{.{.{.{.b.i t 9.e.t.g r 0 0 t 7.vXvX6.0 8 eX{.{.{.{.=X8 r 8.e.e.zXzXfX6 i x.{.{.5X5X{.5X{.{.{.{.{.{.{.{.{.{.{.{.{.{.{.{.{.{.{.{.{.{.{.{.{.{.{.{.{.{.{.{.",
"{.{.{.{.{.{.{.{.b.p e 9.e.t.>.>.g ,.h .XvXvX6.0 5 yX{.{.5X8X*X9 w 4.q.0.fXxXaXa a l.{.{.7XwXwX5X{.{.{.{.{.{.{.{.{.{.{.{.{.{.{.{.{.{.{.{.{.{.{.{.{.{.{.{.{.{.{.{.",
"{.{.{.{.{.{.{.{.b.i 7 5.y.y.y.y.}.bXvXbXvXvXp.r 5 eX8X{.{.{.$X$ ; E ) n _.S._.; ; g.{.{.s.: 2 &X{.{.{.{.{.{.{.{.{.{.{.{.{.{.{.{.{.{.{.{.{.{.{.{.{.{.{.{.{.{.{.{.",
"{.{.{.{.{.{.{.{.b.i t 5.e.e.y.y.}.vXvXvXvXvX6.t 5 yX5X{.{.{.=X+ - E Q Q ^.Z.W.: S l.{.{.s.> : oX{.{.{.{.{.{.{.{.{.{.{.{.{.{.{.{.{.{.{.{.{.{.{.{.{.{.{.{.{.{.{.{.",
"{.{.{.{.{.{.{.{.XXM.z.u.5.5.t.y.}.vXvXsX6X6XN.M.f.eX5X9XOXOX|.&.&.[ / Q ^.'.^.I P -.+XOX@Xl.s.oX{.{.{.{.{.{.{.{.{.{.{.{.{.{.{.{.{.{.{.{.{.{.{.{.{.{.{.{.{.{.{.{.",
"{.{.{.{.{.{.{.{.{.{.{.x.u t q.y.}.vXvXqXr r N.{.{.{.8X:X@ O M `.'.J./ / ^.Q.^./ ^ T O + f.{.{.{.{.{.{.{.{.{.{.5X{.{.{.{.{.{.{.{.{.{.{.{.{.{.{.{.{.{.{.{.{.{.{.{.",
"{.{.{.{.{.{.{.{.{.{.{.x.7 6 q.w.}.lXvXiXp 8 *X6XeX0XeXyX* A V '.'.J.Q Q ^.C.^.] ] W % $ f.{.{.{.{.{.{.{.{.{.{.{.{.{.{.5X{.{.{.{.{.{.{.{.{.{.{.{.{.{.{.{.{.{.{.{.",
"{.{.{.{.{.wXj.j.#X{.{.l.< 3 [. X[.|.|.*.< < $X9XtX,X>Xk.- ; M ].'._.Y.I.'.'.^.] ] Y S # f.{.{.{.{.{.{.{.{.{.{.{.{.{.{.{.{.{.{.{.{.{.{.{.{.{.{.{.{.{.{.{.{.{.{.{.",
"{.{.{.{.oX:X3 D s.{.5Xc.& & E.C./.! ^ Y - % 2XtXkXg.% D > % M '.).S.).Z.'.Q.^./ / I - % f.{.{.{.{.{.{.{.{.{.{.{.{.{.{.{.{.{.{.{.{.{.{.{.{.{.{.{.{.5X{.{.{.{.{.{.",
"{.{.{.{.{.:Xd R z.8X6Xj.D = _.)./.! _ Y = # 2XkXkX:.G 2 S Z M ].'.'.Q.).'.'.^.] / I - % f.{.{.{.{.{.{.{.{.{.{.{.{.{.{.{.{.{.{.{.{.{.{.{.{.{.{.{.{.{.{.{.{.{.{.{.",
"{.{.{.{.{.{.oX9X|.B o.%.' ( W.S.Z.Q./.^._._.%.O.o.4X&X2X; - m '.).).'.'.'.'.^.] ' U - % d.5X{.{.{.{.{.{.{.{.{.{.{.{.{.{.{.{.{.{.{.{.{.{.{.{.{.{.{.{.{.{.{.{.{.{.",
"{.{.{.{.{.{.{.{.b.= $ I ~ ~ ^./././././.'.].N > X 4X5X2X; A m `.).A.).Q.S./.Q./ ] Y - # d.{.{.{.{.{.{.{.{.{.{.{.{.{.{.{.{.{.{.{.{.{.{.{.{.{.{.{.{.{.{.{.{.{.{.{.",
"{.{.{.{.{.{.{.{.p.> % Y ~ _ ~.).Z.W.E.W.).).{ Z X 4X{.1X, S M '.).Q.W.W.'./.^.] / I - % v.hXhX7X{.{.{.{.7XyXyXwX{.{.{.{.5XyXhXyX{.{.{.{.{.{.{.{.{.{.{.{.{.5X{.{.",
"{.{.{.{.{.{.{.{.p.> - Y ~ Q ^.S.Q.Q Q D.'.).{ - X 4X{.1X, ; M '.S.J./ Q ^.'.(./ / U % > % $ $ &X{.{.{.{.%Xe 8 N.{.{.{.{.wX7 8 h.{.{.{.{.{.{.{.{.{.{.{.{.{.{.{.{.",
"{.{.{.{.{.{.{.{.p.- - I ^ ~ ^.).~.~ ] G.'.'.{ Z X 4X{.1X* S M '.A.J.' ^ ^.'.Q./ Q Y % - D D ; &X{.5X{.{..Xp r m.{.{.{.5XeXq p h.{.{.{.{.{.{.{.{.{.{.{.{.{.{.{.{.",
"{.{.{.{.{.{.{.{.p.S > U / _ ~.).~.~ ^ G.).'.{ Z X 4X6XjX1 > M '.).J.( ^ ^.]./.F.H. .% - #.a.a.oX{.7XN.N.N.3.1.n.N.N..XN.#X7.m.N.N.N.&X{.{.{.{.{.{.{.{.{.{.{.{.{.",
"{.{.{.{.{.{.{.{.p.> - Y / _ W.Z.W._ ] D.'.'.N % X 3X{.hX; A m '.'.J.] / ^.'.'.].'.L.% - f.5X{.{.5XuXs p ,.y.y.1.q 0 q 9 h bXzXqX8 u n.{.{.{.{.{.{.{.{.{.{.{.{.{.",
"{.{.{.{.{.{.{.{.p.> - Y / _ ~./.^.Q ..G.S.'.{ C . 3X{.1X; > m ).A.J.^ ! ^.'.'./.Q.L.# A f.5X{.{.{.uXs p ,.y.e.3.r r 8 r h bXzXiX8 e M.{.{.{.{.{.{.{.{.{.{.{.{.{.",
"{.{.{.{.{.{.{.{.p.S - Y / _ ^./.Q.!.E.E.).'.T.T.T.:.:.:.> S V '.`.W.!.!.'.'.^.D.D.n - C d.{.{.{.{.uXs u ,.t.t.q.0.8.qXiXpXlXvXiX8 r n.{.{.{.{.{.{.{.{.{.{.{.{.{.",
"{.{.{.{.{.{.{.{.p.S % T ! / ^./.'.'.).).'.'.S.S.].E D ; % - m '.'.'.'.).'.).^._ ~ Y > % f.{.{.{.{.yXw p ,.y.y.e.y.e.dXlXzXvXgXiXe u M.{.{.{.{.{.{.{.{.{.{.{.{.{.",
"{.{.{.{.{.{.5X5Xf.2 , W / ] ~./.'.'.).A.).`.'.'.].v = # % - M ].'.`.'.'./.).Q._ _ U % % d.{.{.{.6XhXj a <.t.t.t.y.e.dXlXvXgXzXiX0 i b.{.{.{.{.{.{.{.{.{.{.{.{.{.",
"{.{.{.{.{.yX$.$.M.yXwXj.> c ` }  .'.A.Y.| | R.'.'.W.T.R.( ' D.'.'.P.| ` ^././.Q._.&.% % f.{.{.5X{.5XyXeX*Xg g 9.y.w.dXlXgXh h M.eXyX9X{.{.{.{.{.{.{.{.{.{.{.{.{.",
"{.{.{.{.{.:X3 ; l.{.{.c.- > ^ ..} '.S.R.../ R././.'.).W.Q ] D.].`.K.] ( ^./.'./.Q.V.; % f.{.{.{.{.{.{.{..Xi r 5.w.w.dXzXgXq t h.{.{.{.5X{.5X{.{.{.{.{.{.{.{.{.{.",
"{.{.{.{.{.wX-.-.@X{.{.c.% > ^ ^ | ].S.E. . .U.E.E./.'.Q.Q ..F.).).H.] / ^.'.].E.R.V.% - f.{.{.&X;XyX{.{..Xs w 4.0.0.sXxXaXs w g.{.{.9X&X&X8X{.{.{.{.{.{.{.{.{.{.",
"{.{.{.{.{.{.{.{.{.{.{.c.% - ^ ^ } `.'./.'.'.D._ ~ ^.A.^.Q ] D.'.S.J.] Q ^.].^._ _ U % % f.{.8X#.$ +.eX{. X; S E ` n T.A.A.- ; g.{.{.l.$ o yX{.{.{.{.5X{.{.{.{.{.",
"{.{.{.{.{.{.{.{.{.{.{.c.D - ^ ! | Z.Z.S.'.'.D.] / E.C.W.Q ..H.`.).J._ Q ^.'.^._ _ U % - f.{.{.#.: +.eX5X.XS A W ] ( E.C._.% > g.{.5Xz.D + :X{.{.{.{.{.{.{.{.{.{.",
"{.{.{.{.{.{.{.{.{.{.{.+Xs.l.%.Y ` R.R.!.'.'.I.J.F.U.I.U.] ..K.).S.J.] / ^./.^._ ] U % - f.{.8XOXs.v.#X+XOX&.&.H.J.J.Q.S.).P P -.+X+X@Xs.a.wX{.{.{.{.{.{.{.{.{.{.",
"{.{.{.{.{.{.{.{.{.{.{.{.{.5X@.A D ] ^ D.'.'.).).].| / / / ..D.].S.J.' Q ^./.^.] ] Q % - f.{.{.{.{.yX; C m Z.).S.).A.'.'.).' ( ! $ $ z.{.{.{.{.{.{.{.{.{.{.{.{.{.",
"{.{.{.{.{.{.{.{.{.{.{.{.5X5X+.- J _ ' D.).).).`.].} ] ..] ] D.'.Q.H.] ( ^.'.W._ ] U % % p.{.{.8X{.yX2 A M `.).'.S.'.'.S.)./ ] W % A z.{.{.{.{.{.{.{.{.{.{.5X{.{.",
"{.{.{.{.{.{.{.{.{.{.{.{.{.5X+.A J ] / ` D.D.E.'.].R.U.U._ ..F.'.A.C.R.R./.'.^.] ( U A % #.i.g.oX5XyX, S M '.'.'.'.S.S.'.^.~ ] W = & z.{.{.{.{.{.{.{.{.{.{.{.{.{.",
"{.{.{.{.{.{.{.{.{.{.{.5X5X6X+.% F .._ ] ] / I.).'.'./.^._ ] H.'.).).).'.'.'.Q./ / U - - - > > XX{.uX; - M ).).S.)./.S.'.)./ ^ W - - z.{.{.{.{.{.{.{.{.{.{.{.{.{.",
"{.{.{.{.{.{.{.{.{.{.{.6XeXeX$.R v ] _ ] ' _ R.).).)./.^.n _ D.'.'.).'.'.S.'.Q./ ] U # - G v H &X{.uX2 A M '.).`.].'./.'.`.' ] W - - z.8X{.{.{.{.{.{.{.{.{.{.{.{.",
"{.{.{.{.{.{.5X{.{.{.{.v.H X.hXyXjX+ : & = & W | | | | | ^.^.Q.'.S.'.'.'.).'.Q./ _ U % - x.uXuX8X{.yX; A M ).'.P.` n E.'._./ ] W - - z.{.{.{.{.{.{.{.{.{.{.{.{.{.",
"{.{.{.{.{.{.{.{.{.{.{.c.Z 3 &X5XuXo - - A % W / ! / / | /.Q.'.'.'.).).'.).'.Q./ ~ Y - - f.5X{.{.{.uX; A { Z.'.J./ Q !./.Q.' ] W % & z.{.{.{.{.{.{.{.{.{.{.{.{.{.",
"{.{.{.{.{.{.{.{.{.{.{.v.o.B eX{.yXB o.B @.B R ] / ' W ` ^.^.Q.S.'.Q.W.W.'.'.(._ ~ Y - - d.{.{.7XoXyXb E &.~.~.J.} } E.Q.).Q / W - - z.{.{.{.{.{.{.{.{.{.{.{.{.{.",
"{.{.{.{.{.{.{.{.{.{.{.5X8X5X{.{.{.5X6X6X{.0Xc.# # & - c ) ] G.'.Q.J.' Q ^./.Q./ / I % % f.{.5X*.2 v `._.T.] ] P.'.'.'.).`./ ] W # - z.{.{.{.{.{.{.{.{.{.{.{.{.{.",
"{.{.{.{.{.{.{.{.{.{.{.{.{.{.{.{.{.{.{.{.{.{.c.- - > - > ^ / V.'.'.J.^ ( ^./.^./ ' Y % A f.5X6X#.; v ).'.R.] ] U.'.'.S.S.^.! ^ W - & OX{.{.8X{.{.{.{.{.{.{.{.{.{.",
"{.{.{.{.{.{.{.{.{.{.{.{.{.{.{.{.{.{.{.&X=X#X,Xj.l.l.l.j.E E  .].'.J./ / ^./.Q./ ] ` N  .|.*X,X;.V &.A.A.R.] ] U.).'.Y.I.U.I I =.l.j.,X$X$X9X{.{.{.{.{.{.{.{.{.{.",
"{.{.{.{.{.{.5X{.{.{.{.{.{.{.{.{.{.{.{..XO o +X{.{.{.{.oX* % m '.'.J.] Q ^./.^./ ( G.'.'.&.+ + W.A.'.'.'.E._ ] U.'.'. .Q ^ C - g.{.{.s.+   :X{.{.{.{.{.{.{.{.{.{.",
"{.{.{.{.{.{.{.{.{.{.{.{.{.{.{.{.{.{.{.+XO + +X{.{.{.{.wX1 = m ].'.J.] Q ~./.^./ ' D.S.S.&.- C T.'.'.'.'.R./ ] U.S.]. ./ ] % ; g.{.{.s.+   yX{.{.{.{.{.{.{.{.{.{.",
"{.{.{.{.{.{.{.{.{.{.{.{.{.{.{.{.{.{.5X7X*X=X&X{.{.{.{.wX1 - m '.'.J.] _ ^./.(._ / D.'.'.E.V.V.Q.'.).H.G.J.R.V.).'.'. ./ ' % A g.{.{.&X=X+X9X{.{.{.{.{.{.{.{.{.{.",
"{.{.{.{.{.{.{.{.{.{.{.{.{.{.{.{.{.{.{.{.{.{.{.{.{.{.{.wX1 - M './.J.' Q ^.'.^.] / F.'.S.'.'.'.'.'._.~ ^ D.).S.S.'.]. .] ' % - g.{.{.{.{.{.{.{.{.{.{.{.{.{.{.{.{.",
"{.{.{.{.{.{.{.{.{.{.{.{.{.{.{.{.{.{.{.{.{.{.{.5X{.{.{.wX; - m (./.K.' Q ^.'.^./ / G.Q./.(.^.(.'.'.^._ / B.'.'.)./.]. .! ] R R g.6X9X6X{.{.{.{.{.{.{.{.{.{.{.{.{.",
"{.{.{.{.{.{.{.{.{.{.{.{.{.{.{.{.{.{.{.{.{.{.{.{.{.{.{.wX, - L ` n _ ] Q ^.).^./ ( ] ` ` ` ` ` W.'.`.`.).).S.'.J.n ` c D +.9X7X;X3 4 OX{.{.{.{.{.{.{.{.{.{.{.{.{.",
"{.{.{.{.{.{.{.{.{.{.{.{.{.{.{.{.{.{.{.{.{.{.{.{.{.{.{.wX1 - L ] / ~ ] Q Q.'.^./ ' ] ' ' ~ _ ] W.'.'.).A.).).Z.J.~ ] c & +.5X{.;X+ & z.{.{.{.{.{.{.5X{.{.{.{.{.{.",
"{.{.{.{.{.{.{.{.{.{.{.{.{.{.6X{.{.{.{.{.{.{.{.{.{.yXyXhX@ % L / ] ` } } Q.].^._ _ _ | | } } } W./.'.S.).).^.W.F./ / x D +.{.6X;XX.O.OX{.{.{.{.{.{.{.{.{.{.{.{.{.",
"{.{.{.{.{.{.{.{.{.{.{.{.{.{.{.{.{.{.{.{.{.{.{.{.{.=.> 3 & D L / / U.'.'./.'.Q./ ~ D.].].].'.'.Q.).Q.S.S.R._ ] ..] ..x % O.5X{.{.8X9X8X{.{.{.{.{.{.{.{.{.{.{.{.{.",
"{.{.{.{.{.{.{.{.{.{.{.{.{.{.{.{.{.{.{.{.{.{.{.{.{.*.D D - D L / ^ U.'.'././.Q./ ] D.S.'.).'.'.).).).'.'.R.^ ^ ! ^ ] J > @.5X{.{.{.{.{.{.{.{.{.{.{.{.{.{.{.{.{.{.",
"{.{.{.{.{.{.{.{.{.{.{.{.{.{.{.{.{.{.{.{.{.{.{.{.{.@Xl.j.> - L / / I.'.'.'.'.Q._ ] G.S.).'.'.'.R.I.U.R.U.K.I U I Y E j.l.v.5X{.{.{.{.{.{.{.{.{.{.{.{.{.{.{.{.{.{.",
"{.{.{.{.{.{.{.{.{.{.{.{.{.{.{.{.{.{.{.{.{.{.{.{.{.{.{.eX1 - c ~ ~ I.S.'.'.].^./ ] G.S.A.)./.`. .Q ^ / / Y % % C % + &X{.{.{.{.{.{.{.{.{.{.{.{.{.{.{.{.{.{.{.{.{.",
"{.{.{.{.{.{.{.{.{.{.{.{.{.{.{.{.{.{.{.{.{.{.{.{.{.{.{.wX* - L ~ / P.A.'.S.).Q.~ ' D.'.'.`.'.'.} ~ ~ / ^ ! + + + +   &X{.{.{.{.{.{.{.{.{.{.{.{.{.{.{.{.{.{.{.{.{.",
"{.{.{.{.{.{.{.{.{.{.{.{.{.{.{.{.{.{.{.{.{.{.{.{.{.{.{.wX* - ) I.Y.Q.).).S.).C.I.I.E./.A.R.G.G.E L L L P *.-X-X-X-X-X,Xj.v.{.{.{.{.{.{.{.{.{.{.{.{.5X{.{.{.{.{.{.",
"{.{.{.{.{.8X{.{.{.{.{.{.{.{.{.{.{.{.{.{.{.{.{.{.{.{.{.9X* A M '.).`.A.).S.).'.'.'.'.S.A.U./ _ F & - - G i.8X{.{.{.{.-.S +.{.{.{.{.{.{.{.{.{.{.{.{.{.{.{.{.{.{.{.",
"{.{.{.{.{.{.{.{.{.{.{.{.{.{.{.{.{.{.{.{.{.{.{.{.{.{.{.wX, S m '.'.'._.).'.).'.'.).).`.).K.^ ] v 3 3 3 F *.{.{.{.{.{.g.v @.8X{.{.{.{.{.{.{.{.{.{.{.{.{.{.{.{.{.{.",
"{.{.{.{.{.{.{.{.{.{.{.{.{.{.{.{.{.{.{.{.{.{.{.{.{.{.{.wX* - m '.'.P.| ` ^.'.'.'.).Y.| [ W F J -X8XoXoXoX8X{.{.{.{.{.oXoXoX{.{.{.{.{.{.{.{.{.{.{.{.{.{.{.{.{.{.{.",
"{.{.{.{.{.{.{.{.{.{.{.{.{.{.{.{.{.{.{.{.{.{.{.{.{.{.{.wX* % M '.'.J.' ( ^././.'.).Y.Q / I - ; %X5X{.{.{.{.{.{.{.{.{.{.{.{.{.{.{.{.{.{.{.{.{.{.{.{.{.{.{.{.{.{.{.",
"{.{.{.{.{.{.{.{.{.{.{.{.{.{.{.{.{.{.{.{.{.{.8X{.{.yX:X1X* % M '.).J.] / ^./.'.~.W.P.W ' %.$.=.2X1XyX{.{.{.{.{.{.{.{.{.{.{.{.{.{.{.{.{.{.{.{.{.{.{.{.{.{.{.{.{.{.",
"{.{.{.{.{.{.{.{.{.{.{.{.{.{.{.{.{.{.{.{.{.{.{.{.{.=.% > - > M '.`.J.] Q ^.^./._ ( U - # z.9X8X*.- +.0X{.{.{.{.{.{.{.{.{.{.{.{.{.{.{.{.{.{.{.{.{.{.{.{.{.{.{.{.{.",
"{.{.{.{.{.{.{.{.{.{.{.{.{.{.{.{.{.{.{.{.{.{.{.{.{.-.D F - = m '.).J.' Q ^./.^./ ~ U - % f.{.8X*.F +.eX8X{.{.{.{.{.{.{.{.{.{.{.{.{.{.{.{.{.{.{.{.{.{.{.{.{.{.{.{.",
"{.{.{.{.{.{.{.{.{.{.{.{.{.{.{.{.{.{.{.{.{.{.{.{.{.M.a.a.- - M '.C.J.' Q ^.'.(./ / I - % f.{.5XM.s.z.8X{.{.{.{.{.{.{.{.{.{.{.{.{.{.{.{.{.{.{.{.{.{.{.{.{.{.{.{.{.",
"{.{.{.{.{.{.{.{.{.{.{.{.{.{.{.{.{.{.{.{.{.{.{.{.{.{.{.oX, - m '.).J.' Q W.'.Q./ / T - % f.{.{.{.{.{.{.{.{.{.{.{.{.{.{.{.{.{.{.{.{.{.{.{.{.{.{.{.{.{.{.{.{.{.{.{.",
"{.{.{.{.{.{.{.{.{.{.{.{.{.{.{.{.{.{.{.{.{.{.{.{.{.{.{.wX* S M '.).H.' Q ^.'.^._ ' U - # f.{.{.{.{.{.{.{.{.{.{.8X{.{.{.{.{.{.{.{.{.{.{.{.{.{.{.{.{.{.{.{.{.{.{.{.",
"{.{.{.{.{.{.{.{.{.{.{.{.{.{.{.{.{.{.{.{.{.{.{.{.{.{.{.wX, C v M M E P P { M { P P J - % f.{.{.{.{.{.{.{.{.{.{.{.{.{.{.{.{.{.{.{.{.{.{.{.{.{.{.{.{.{.{.{.{.{.{.{.",
"{.{.{.{.{.{.{.{.{.{.{.{.{.8X{.{.{.{.{.{.{.{.{.{.{.{.{.wX, ; D Z & Z > Z A A D C % % - % f.{.{.{.{.{.{.{.{.{.{.{.{.{.{.{.{.{.{.{.{.{.5X{.{.{.{.{.{.{.{.{.{.5X{.{.",
"{.{.{.{.{.{.{.{.{.{.{.{.{.{.{.{.{.{.{.{.{.{.{.{.{.{.5XwX2 D S S S S S D S S ; F S > S - f.5X{.{.{.{.{.{.{.{.{.{.{.{.{.{.{.{.{.{.{.{.{.{.{.{.{.{.{.{.{.{.{.{.{.{.",
"{.{.{.{.{.{.{.{.{.{.{.{.{.{.{.{.{.{.{.{.{.{.{.{.{.{.5X5XyXyXyXyXyXyXyXyXyXyXyXyX:XyXyXyX7X{.{.{.{.{.{.{.{.{.{.{.{.{.{.{.{.{.{.{.{.{.{.{.{.{.{.{.{.{.{.{.{.{.{.{."
};
