/* XPM */
static char *b92d63f63973402dde2038dd948dde51dKU8SWFRR9fiedsa[] = {
/* columns rows colors chars-per-pixel */
"80 80 205 2 ",
"   c #000001",
".  c #010008",
"X  c #1D0B0D",
"o  c #010114",
"O  c #010816",
"+  c #00061C",
"@  c #01081B",
"#  c #1B1215",
"$  c #380D00",
"%  c #2A1606",
"&  c #351200",
"*  c #3C1E02",
"=  c #391C04",
"-  c #281B17",
";  c #291B1A",
":  c #362104",
">  c #3A2002",
",  c #39220A",
"<  c #30221B",
"1  c #322419",
"2  c #000721",
"3  c #332822",
"4  c #3C393A",
"5  c #401E01",
"6  c #432404",
"7  c #472906",
"8  c #492B07",
"9  c #442509",
"0  c #46290C",
"q  c #4A2C0A",
"w  c #592E06",
"e  c #5B2F09",
"r  c #56310B",
"t  c #59310A",
"y  c #432911",
"u  c #532F12",
"i  c #543011",
"p  c #5F3E14",
"a  c #58361B",
"s  c #60370B",
"d  c #723D0B",
"f  c #603F15",
"g  c #5B3F24",
"h  c #7F4307",
"j  c #7F430A",
"k  c #7F490A",
"l  c #694618",
"z  c #7C4815",
"x  c #7E4919",
"c  c #4A4039",
"v  c #5A4633",
"b  c #6B4729",
"n  c #6B4A2D",
"m  c #7C4B21",
"M  c #725226",
"N  c #7D5723",
"B  c #7F5823",
"V  c #775536",
"C  c #7C5735",
"Z  c #3F4041",
"A  c #46444B",
"S  c #4F4F4F",
"D  c #524E4D",
"F  c #4E504E",
"G  c #5D524B",
"H  c #444851",
"J  c #534E50",
"K  c #68564C",
"L  c #7C584D",
"P  c #6D5D52",
"I  c #595469",
"U  c #766E68",
"Y  c #7D7C7C",
"T  c #814206",
"R  c #814209",
"E  c #824A0D",
"W  c #804912",
"Q  c #814918",
"!  c #875417",
"~  c #915A1C",
"^  c #835222",
"/  c #865E26",
"(  c #885D24",
")  c #8C562A",
"_  c #815939",
"`  c #945F34",
"'  c #8A6329",
"]  c #8E662C",
"[  c #936627",
"{  c #996523",
"}  c #956A2C",
"|  c #9A6B2C",
" . c #876335",
".. c #996638",
"X. c #A3722D",
"o. c #A77632",
"O. c #AD7A33",
"+. c #B07E37",
"@. c #885B4C",
"#. c #866549",
"$. c #966B46",
"%. c #866858",
"&. c #A47247",
"*. c #857066",
"=. c #937961",
"-. c #B18037",
";. c #B18139",
":. c #BA863A",
">. c #C48E3F",
",. c #BC864E",
"<. c #BB8C49",
"1. c #AB8B5D",
"2. c #BB8654",
"3. c #B68857",
"4. c #BA8856",
"5. c #B6885C",
"6. c #B9885A",
"7. c #BE9459",
"8. c #86847B",
"9. c #988677",
"0. c #91867B",
"q. c #A68364",
"w. c #A68B64",
"e. c #A1896C",
"r. c #BD8E62",
"t. c #BD9165",
"y. c #BB956C",
"u. c #B7996E",
"i. c #AC9276",
"p. c #B79777",
"a. c #BC9572",
"s. c #B39C7C",
"d. c #C38E40",
"f. c #C39044",
"g. c #C1914C",
"h. c #C99954",
"j. c #D09E54",
"k. c #C18F60",
"l. c #C89B6A",
"z. c #D59F6D",
"x. c #D89F6C",
"c. c #CF9E72",
"v. c #C59F7C",
"b. c #D59E71",
"n. c #D5A06C",
"m. c #D5A375",
"M. c #D8A875",
"N. c #E2AF7A",
"B. c #ECBE7F",
"V. c #787A85",
"C. c #6E709B",
"Z. c #7F8EBF",
"A. c #7A8DC5",
"S. c #7EA1E4",
"D. c #858584",
"F. c #888583",
"G. c #858588",
"H. c #928583",
"J. c #AF9D86",
"K. c #B49987",
"L. c #A69692",
"P. c #BA9F9E",
"I. c #ACA18D",
"U. c #A7A39A",
"Y. c #A9A29A",
"T. c #BFA491",
"R. c #A392A3",
"E. c #B99FA3",
"W. c #B49FAC",
"Q. c #9FA5A3",
"!. c #A3A3A3",
"~. c #A3A2A8",
"^. c #B1A0AD",
"/. c #C39E98",
"(. c #C7A384",
"). c #C8B29C",
"_. c #D8B492",
"`. c #E2AF81",
"'. c #ECBD85",
"]. c #E7B98D",
"[. c #E8BD97",
"{. c #CAB4A2",
"}. c #CEBAAE",
"|. c #ECBFB5",
" X c #EEC68E",
".X c #F7CB8D",
"XX c #FDCB95",
"oX c #F4C69B",
"OX c #FECB9B",
"+X c #FDCB9D",
"@X c #FECB9C",
"#X c #E5C4AE",
"$X c #FECAA2",
"%X c #F9CEAA",
"&X c #8795CE",
"*X c #969BC8",
"=X c #879BDC",
"-X c #88A0D8",
";X c #ABABCC",
":X c #859DE5",
">X c #8A9BE4",
",X c #849CEB",
"<X c #899AEA",
"1X c #83A0E1",
"2X c #C9B5C0",
/* pixels */
">.>.>.>.>.>.>.>.>.>.>.>.>.>.>.>.>.>.>.>.>.>.>.>.>.>.>.>.>.>.>.>.>.>.>.>.>.>.>.>.d.d.d.>.>.>.>.>.>.>.>.>.>.>.>.>.>.>.>.>.>.>.>.>.>.>.>.>.>.>.>.>.>.>.d.>.>.>.>.>.",
">.>.>.>.>.>.>.>.>.>.>.>.>.>.>.>.>.>.>.>.>.>.>.>.>.>.>.>.>.>.>.>.>.>.>.>.>.>.>.>.d.d.d.>.>.>.>.>.>.>.>.>.>.>.>.>.>.>.>.>.>.>.>.>.>.>.>.>.>.>.>.>.>.>.>.>.>.>.>.>.",
">.>.>.>.>.>.>.>.>.>.>.>.>.>.>.>.>.>.>.>.>.>.>.>.>.>.>.>.>.' p l p p p p p p p p p p p l f f f f p p l >.>.>.>.>.>.>.>.>.>.>.>.>.>.>.>.>.>.>.>.>.>.>.>.>.>.>.>.>.",
">.>.>.>.>.>.>.>.>.>.>.>.>.>.>.>.>.>.>.>.>.>.>.>.>.>.>.>.>.N = * * > * * * > * * = * = * > * * > * * 7 >.>.>.>.>.>.>.>.>.>.>.>.>.>.>.>.>.>.>.>.>.>.>.>.>.>.>.>.>.",
">.>.>.>.>.>.>.>.>.>.>.>.>.>.>.>.>.>.>.>.>.>.>.>.>.>.>.>.>.^ * * * > * * * * * > * * * * > * > * * > 6 >.>.>.>.>.>.>.>.>.>.>.>.>.>.>.>.>.>.>.>.>.>.>.>.>.>.>.>.>.",
">.>.>.>.>.>.>.>.>.>.>.>.>.>.>.>.>.>.>.>.>.>.>.>.>.>.>.>.>.B * * * * * * > * * * * * * > * * * * * * 6 >.>.>.>.>.>.>.>.>.>.>.>.>.>.>.>.>.>.>.>.>.>.>.>.>.>.>.>.>.",
">.>.>.>.>.>.>.>.>.>.>.>.>.>.>.>.>.>.>.>.>.>.>.>.>.>.>.>.>.N * * * * * * * * * * * * * * * * * * * * 6 >.>.>.>.>.>.>.>.>.>.>.>.>.>.>.>.>.>.>.>.>.>.>.>.>.>.>.>.>.",
">.>.>.>.>.>.>.>.>.>.>.>.>.>.>.>.>.>.>.>.>.>.>.>.>.>.>.>.>.B > > > > > > * > > > > > * > > > : = > > 6 >.>.>.>.>.>.>.>.>.>.>.>.>.>.>.>.>.>.>.>.>.>.>.>.>.>.>.>.>.",
">.>.>.>.>.>.>.>.>.>.>.>.>.>.>.>.>.>.>.>.>.>.>.>.>.>.>.>.>.B > * * * * * * * * = = , = : * * * , * > 7 >.>.>.>.>.>.>.>.>.>.>.>.>.>.>.>.>.>.>.>.>.>.>.>.>.>.>.>.>.",
">.>.>.>.>.>.>.>.>.>.>.>.>.>.>.>.>.>.>.>.>.>.>.>.>.>.>.>.>. .c c c c c c c c g Z c c A g c c g Z c c v >.>.>.>.>.>.>.>.>.>.>.>.>.>.>.>.>.>.>.>.>.>.>.>.>.>.>.>.>.",
">.>.>.>.>.>.>.>.>.>.>.>.>.>.>.>.>.>.>.>.>.>.>.>.>.>.>.>.>.#.F F S S F S S S S S F F H F S S S J F S G >.>.>.>.>.>.>.>.>.>.>.>.>.>.>.>.>.>.>.>.>.>.>.>.>.>.>.>.>.",
">.>.>.>.>.>.>.>.>.>.>.>.>.>.>.>.>.>.>.>.>.>.>.>.>.>.>.>.>.#.F F F F F F F F F S F F F F F F F F F F G >.>.>.>.>.>.>.>.>.>.>.>.>.>.>.>.>.>.>.>.>.>.>.>.>.>.>.>.>.",
">.>.>.>.>.>.>.>.>.>.>.>.>.>.>.>.>.>.>.>.>.>.>.>.>.>.>.>.>.$.D J J J J J J J J J J J J J J J J J J S G d.>.>.>.>.>.d.d.d.>.>.>.>.>.>.>.>.>.>.>.>.>.>.>.>.>.>.>.>.",
">.>.>.>.>.>.>.>.>.>.>.>.>.>.>.>.>.>.| q q 8 8 8 8 8 8 q q , : > > > , > > > , > > > , > > > * , > , , 7 q 0 7 7 7 7 7 0 8 l >.>.>.>.>.>.>.>.>.>.>.>.>.>.>.>.>.>.",
">.>.>.>.>.>.>.>.>.>.>.>.>.>.>.>.d.>.] * * * * * > 5 > > * * * * * * * * * * * * * * * * * * * * 5 * * 5 * > * * * * * * * p >.>.>.>.>.>.>.>.>.>.>.>.>.>.>.>.>.>.",
">.>.>.>.>.>.>.>.>.>.>.>.>.>.>.>.d.d.] * * * * * > > > > * * * > > > * * * > * * > : * * * > * * * * * > * * * * * * * * * p >.>.>.>.>.>.>.>.>.>.>.>.>.>.>.>.>.>.",
">.>.>.>.>.>.>.>.>.>.>.>.>.>.>.>.>.>.o./ / / / / / ' / / / l w w p q.q.q.=.q.q.q.=.q.q.q.=.q.q.C w w p / ' / ' ' / ' ' ' ' [ >.>.>.>.>.>.>.>.>.>.>.>.>.>.>.>.>.>.",
">.>.>.>.>.>.>.>.>.>.>.>.>.>.>.>.>.>.>.>.>.>.>.d.>.>.>.>.>.{ T R ) OXoXOXOXXXoXOXOXOXoXOXOXOXOX4.h h E d.>.>.:.>.>.:.>.>.:.>.>.>.>.>.>.>.>.>.>.>.>.>.>.>.>.>.>.>.",
">.>.>.>.>.>.>.>.>.>.>.>.>.>.>.>.>.>.>.>.>.>.>.>.>.>.>.>.>.{ T T ) OXOXOXOXOXOXOXOXOXOXOXOXOXOXt.R T E >.>.>.>.>.>.>.>.>.>.>.>.>.>.>.>.>.>.>.>.>.>.>.>.>.>.>.>.>.",
">.>.>.>.>.>.>.>.>.>.>.>.>.>.>.>.>.>.>.>.>.>.>.>.>.>.>.>.>.{ T R ) OXOXOXOXOXOXOXOXOXOXOXOX$XXXt.R T E >.>.>.>.f.>.>.>.>.>.>.>.>.>.>.>.>.>.>.>.>.>.>.>.>.>.>.>.>.",
">.>.>.>.>.>.>.>.>.>.>.>.>.>.>.>.>.>.>.>.>.>.>.>.>.d.>.>.d.M.`.N.`.=.=.=.(.OXOXOXXXOXOX[.=.=.=.v.N.`.N.>.>.>.<.e.e.e.e.e.w.1.>.>.>.>.>.>.>.>.>.>.>.>.>.>.>.>.>.>.",
">.>.>.>.>.>.>.>.>.>.>.>.>.>.>.>.>.>.>.>.>.>.>.>.>.>.>.>.d.'.+X+XoX      i.OXXXOXXXXXOX_.      v.+X+X.X>.>.>.<.D.D.D.D.D.D.9.>.>.>.>.>.>.>.>.>.>.>.>.>.>.>.>.>.>.",
">.>.>.>.>.>.>.>.>.>.>.>.>.>.>.>.>.>.>.>.>.>.>.>.>.>.>.>.d.'.OXOXoX      i.XXXX+XOXOXXX_.    . (.XX$XXXd.>.d.<.D.D.D.D.D.D.9.>.>.>.>.>.>.>.>.>.>.>.>.>.>.>.>.>.>.",
">.>.>.>.>.>.>.>.>.>.>.>.>.>.>.>.>.>.>.>.>.>.>.>.>.>.>.>.d.'.XX+XoX# 3 3 p.+XOX$X$XOXOX].3 1 3 T.oX+X X<.d.d.4.0.0.0.0.9.F.e.>.>.>.>.>.>.>.>.>.>.>.>.>.>.>.>.>.>.",
">.>.>.>.>.>.>.>.>.>.>.>.>.>.>.>.>.>.>.>.>.>.>.>.>.>.>.>.>.'.XX+XOX%X$X%XOXOXOXOXXX+X+XXX%X+X$XT.8.D.D.0.8.F.1.>.d.d.>.>.>.>.>.>.>.>.>.>.>.>.>.>.>.>.>.>.>.>.>.>.",
">.>.>.>.>.>.>.>.>.>.>.>.>.>.>.>.>.>.>.>.>.>.>.>.>.>.>.>.>.B.OX+XOXOXOXOXOX$XOXOXOXOXOXOX+XOXOXT.Z.D.D.D.G.G.w.>.>.d.>.>.>.>.>.>.>.>.>.>.>.>.>.>.>.>.>.>.>.>.>.>.",
">.>.>.>.>.>.>.>.>.>.>.>.>.>.>.>.>.>.>.>.>.>.>.>.>.>.>.>.>.B.OXOXOX$XOXOXOXOXOXOXOXOXOXOX+XOXOX/.8.8.G.F.F.G.w.>.>.>.>.>.>.>.>.>.>.>.>.>.>.>.>.>.>.>.>.>.>.>.>.>.",
">.>.>.>.>.>.>.>.>.>.>.>.>.>.>.>.>.>.>.>.>.>.>.>.>.>.>.>.>.n.m.m.M.OXOXOX'.m.m.m.v.v.v.(._._._.i.%.%.*.w.1.w.4.>.>.>.>.>.>.>.>.>.>.>.>.>.>.>.>.>.>.>.>.>.>.>.>.>.",
">.>.>.>.>.>.>.>.>.>.>.>.>.>.>.>.>.>.>.>.>.>.>.>.>.>.>.>.>.{ R h ) OXOXOXc.R R R %     4 8.Z.D.#.h h E >.>.>.>.>.>.>.>.>.>.>.>.>.>.>.>.>.>.>.>.>.>.>.>.>.>.>.>.>.",
">.>.>.>.>.>.>.>.>.>.>.>.>.>.>.>.>.>.>.>.>.>.>.>.>.>.>.>.>.{ T T ) XXOXoXc.R R R %     A 8.G.D.L h h E >.>.>.>.>.>.>.>.>.>.>.>.>.>.>.>.>.>.>.>.>.>.>.>.>.>.>.>.>.",
">.>.>.>.>.>.>.>.>.>.>.>.>.>.>.>.>.>.>.>.>.>.>.>.>.>.>.>.>.{ T h ) XXOXOXm.j T R %     Z 8.8.8.#.T T E >.>.>.>.>.>.>.>.>.>.>.>.>.>.>.>.>.>.>.>.>.>.>.>.>.>.>.>.>.",
">.>.>.>.>.>.>.>.>.>.>.>.>.>.>.>.>.>.>.>.>.>.>.>.>.>.>.>.>.{ T h z &.&.&...R R R d d d z _ _ C ! T k E >.>.>.>.>.>.>.>.>.>.>.>.>.>.>.>.>.>.>.>.>.>.>.>.>.>.>.>.>.",
">.>.>.>.>.>.>.>.>.>.>.>.>.>.>.>.>.>.>.>.>.>.>.>.>.>.>.>.>.{ h h E T T T T R R R T T T T T T R R R R R d.>.>.>.>.>.>.>.>.>.>.>.>.>.>.>.>.>.>.>.>.>.>.>.>.>.>.>.>.",
">.>.>.>.>.>.>.>.>.>.>.>.>.>.>.>.>.>.>.>.>.>.>.>.>.>.>.>.>.{ T h T T T T T R R T T R R R T T T R T T E d.>.>.>.>.>.>.>.>.>.>.>.>.>.>.>.>.>.>.>.>.>.>.>.>.>.>.>.>.",
">.>.>.>.>.>.>.>.>.>.>.>.>.>.>.>.>.>.>.>.>.>.>.>.>.>.>.>.>.| ~ ~ ~ #.%.@.@.......$.....@.L L @.) ~ ~ { d.>.>.>.>.>.>.>.>.>.>.>.>.>.>.>.>.>.>.>.>.>.>.>.>.>.>.>.>.",
">.>.>.>.>.>.>.>.>.>.>.>.>.>.>.>.>.>.>.>.>.>.>.>.>.>.>.>.>.>.>.>.g.=X=X=X2XOXOX$X$XXXXX#X=X>X>Xp.>.>.>.>.>.>.>.>.>.>.>.>.>.>.>.>.>.>.>.>.>.>.>.>.>.>.>.>.>.>.>.>.",
">.>.>.>.>.>.>.>.>.>.>.>.>.>.>.>.>.>.>.>.>.>.>.>.>.>.>.>.d.>.>.>.g.>X>X,X2X$X$XXXXXOXOX#XS.S.S.K.>.>.>.>.>.>.>.>.>.>.>.>.>.>.>.>.>.>.>.>.>.>.>.>.>.>.>.>.>.>.>.>.",
">.>.>.>.>.>.>.>.>.>.>.>.>.>.>.>.>.>.>.>.>.>.>.>.>.>.>.>.d.d.>.>.g.=X1X,X}.OX$XoXXXOXOX#X<X:X=XK.>.>.>.>.>.>.>.>.>.>.>.>.>.>.>.>.>.>.>.>.>.>.>.>.>.>.>.>.>.>.>.>.",
">.>.>.>.>.>.>.>.>.>.>.>.>.>.>.>.>.>.>.>.>.>.>.>.>.>.>.>.d.O.| | ..V.C.C.H.u.a.y.a.a.y.K.R.R.R.q.} } | >.>.>.>.>.>.>.>.>.>.>.>.>.>.>.>.>.>.>.>.>.>.>.>.>.>.>.>.>.",
">.>.>.>.>.>.>.>.>.>.>.>.>.>.>.>.>.>.>.>.>.>.>.>.>.>.>.>.d.! , > * : 5 5 * 5 , : = = = b 2.2.2.C * * 8 >.>.>.>.>.>.>.>.>.>.>.>.>.>.>.>.>.>.>.>.>.>.>.>.>.>.>.>.>.",
">.>.>.>.>.>.>.>.>.>.>.>.>.>.>.>.>.>.>.>.>.>.>.>.>.>.>.>.>.^ > > * * * * * * * * : * * b 2.2.2._ > * 6 d.>.>.>.>.>.>.>.>.>.>.>.>.>.>.>.>.>.>.>.>.>.>.>.>.>.>.>.>.",
">.>.>.>.>.>.>.>.>.>.>.>.>.>.>.>.>.>.>.>.>.>.>.>.>.d.>.>.>.B $ $ & & $ $ $ & & & * * * n 6.6.2._ * 5 6 d.>.>.>.>.>.>.>.>.>.>.>.>.>.>.>.>.>.>.>.>.>.>.>.>.>.>.>.>.",
">.>.>.>.>.>.>.>.>.>.>.>.>.>.>.>.>.>.>.>.>.>.>.>.d.t.*X*X*XK.l.l.l.l.l.l.Y.&X&X=XA * = 9 a a a y > * * f p f [ >.>.>.>.>.>.>.>.>.>.>.>.>.>.>.>.>.>.>.>.>.>.>.>.>.",
">.>.>.>.>.>.>.>.>.>.>.>.>.>.>.>.>.>.>.>.>.>.>.>.>.p.>XS.:X/.n.n.m.n.z.b.^.<XS.>XA * > * * * * * > * > * > > ' >.>.>.>.>.>.>.>.>.>.>.>.>.>.>.>.>.>.>.>.>.>.>.>.>.",
">.>.>.>.>.>.>.>.>.>.>.>.>.>.>.>.>.>.>.>.>.>.>.>.>.p.1X,X>X/.n.n.z.z.n.n.W.:X=X>XA * * = * * * * * 5 , * * * ' >.>.>.>.>.>.>.>.>.>.>.>.>.>.>.>.>.>.>.>.>.>.>.>.>.",
">.>.>.>.>.>.>.>.>.>.>.>.>.>.>.>.>.>.>.>.>.>.j.j.h.(.;X;X;X/.n.n.n.z.n.n.W.,X:X:XC.I I J * * * g n n b , > 5 N O.+.+.>.>.>.>.>.>.>.>.>.>.>.>.>.>.>.>.>.>.>.>.>.>.",
">.>.>.>.>.>.>.>.>.>.>.>.>.>.>.>.>.>.>.>.>.>..XXXXXOX+XOXXXN.b.n.n.n.n.n.W.:X:X:XS.S.:XZ.= * * $.2.2.6.> * * * * * > +.d.>.>.>.>.>.>.>.>.>.>.>.>.>.>.>.>.>.>.>.>.",
">.>.>.>.>.>.>.>.>.>.>.>.>.>.>.>.>.>.>.>.>.>.XX+X+XOXOX$XOXN.n.n.n.n.z.n.W.:X:X:X&X>X,XA.= * * $.,.,.2.6 * * , * > * +.>.>.>.>.>.>.>.>.>.>.>.>.>.>.>.>.>.>.>.>.>.",
">.>.>.>.>.>.>.>.>.>.>.>.>.>.>.>.>.>.>.d.d.d..XXXXXXXOXOX+XN.n.n.n.n.n.n.W.:X:XS.,X=X:XZ.* * > $.2.2.2.* > * * * * * +.>.>.>.>.>.>.>.>.>.>.>.>.>.>.>.>.>.>.>.>.>.",
">.>.>.>.>.>.>.>.>.>.>.>.>.>.>.>.>.>.h.s.p.s.{.{.{.}.OXXXOXN.n.n.z.n.n.z.(.E.E.E.E.P.P.L.* > > $.2.2.4.* * * * * * * +.>.>.>.>.>.>.>.>.>.>.>.>.>.>.>.>.>.>.>.>.>.",
">.>.>.>.>.>.>.>.>.>.>.>.>.>.>.>.d.>.p.Q.~.!.!.U.!.).OXOXXXN.n.n.n.n.n.n.z.z.n.n.z.z.z.t.* * * $.g.,.4.5 * * > * * * +.>.>.>.>.>.>.>.>.>.>.>.>.>.>.>.>.>.>.>.>.>.",
">.>.>.>.>.>.>.>.>.>.>.>.>.>.>.>.d.d.s.!.~.!.!.!.!.{.+X+XXXN.n.n.n.n.n.n.n.z.n.n.z.z.x.r.= = * $.&.,.4.5 > * * * * * +.d.>.>.>.>.>.>.>.>.>.>.>.>.>.>.>.>.>.>.>.>.",
">.>.>.>.>.>.>.>.>.>.>.>.>.>.>.>.d.d.u.Y.U.Y.Y.U.Y.)..XXXXXN.n.n.n.n.n.n.n.n.n.n.n.n.n.t.* * * $.k.k.5.6 * * * & & & +.>.>.>.>.>.>.>.>.>.>.>.>.>.>.>.>.>.>.>.>.>.",
">.>.>.>.>.>.>.>.>.>.>.>.>.>.d.J.Y.I.h.f.>.d.>.>.>.>.>.>.<.j.n.n.n.z.n.n.n.n.n.n.n.n.x.t.* * * * 5 5 6 * * * C 4.4.3.d.>.>.>.>.>.>.>.>.>.>.>.>.>.>.>.>.>.>.>.>.>.",
">.>.>.>.>.>.>.>.>.>.>.>.>.>.g.!.U.~.t.>.>.>.>.>.>.>.>.>.>.l.n.n.n.n.n.z.n.n.m.n.n.n.x.6.* * * * 5 > * * * * C ,.,.4.d.>.>.>.>.>.>.>.>.>.>.>.>.>.>.>.>.>.>.>.>.>.",
">.>.>.>.>.>.>.>.>.>.>.>.>.>.g.U.!.Q.t.>.>.>.>.>.>.>.>.>.>.j.n.n.n.z.z.z.n.n.n.n.n.n.n.t.* > * > 5 * * > * * C 2.2.2.d.>.>.>.>.>.>.>.>.>.>.>.>.>.>.>.>.>.>.>.>.>.",
">.>.>.>.>.>.>.>.>.>.>.<.h.7.7.s.K.s.g.>.>.>.>.>.>.>.>.>.>.2.6.6.6.6.5.4.r.a.a.y.6.u.a.w.* * * * * * * * * * V ,.,.2.>.>.>.>.>.>.>.>.>.>.>.>.>.>.>.>.>.>.>.>.>.>.",
">.>.>.>.>.>.>.>.>.>.>.I.~.~.K.>.>.>.>.>.>.>.>.>.>.>.>.>.>./ t r r r t r P Y *.V.Y Y Y U * * > * > > * > * = C 2.2.2.>.>.>.>.>.>.>.>.>.>.>.>.>.>.>.>.>.>.>.>.>.>.",
">.>.>.>.>.>.>.>.>.>.>.I.!.!.I.>.>.>.>.>.>.>.>.>.>.>.>.>.>./ t t t t t w K Y Z.U 8.Y V.U * > * * 5 > * * * * C ,.2.4.>.>.>.>.>.>.>.>.>.>.>.>.>.>.>.>.>.>.>.>.>.>.",
">.>.>.>.>.>.>.>.>.>.>.J.!.!.s.>.>.>.>.>.>.>.>.>.>.>.>.>.>./ t r w r e r P Y Y 8.U &X*.U = * * > * * * * * * V 2.2.2.<.>.>.>.>.>.>.>.>.>.>.>.>.>.>.>.>.>.>.>.>.>.",
">.>.>.>.>.>.>.>.>.>.>.g.7.7.f.>.>.>.>.>.>.>.>.>.>.>.>.>.>.( w w e ; ; ; 4 H H H A H A Z X # # ; # # X * = * g V V V ;.>.>.>.>.>.>.>.>.>.>.>.>.>.>.>.>.>.>.>.>.>.",
">.>.>.>.>.>.>.>.>.>.>.>.>.>.>.>.>.>.>.>.>.>.>.>.>.>.>.>.>.( w t u + 2 2 O O @ @ 2 + @ @ + + + + + @ + , 5 * * = * > -.>.>.>.>.>.>.>.>.>.>.>.>.>.>.>.>.>.>.>.>.>.",
">.>.>.>.>.>.>.>.>.>.>.>.>.>.>.>.>.>.>.>.>.>.>.>.>.>.>.>.>./ r r i + + + + + + O + + + + + + + O + + O * 5 * * 5 * * +.>.>.>.>.>.>.>.>.>.>.>.>.>.>.>.>.>.>.>.>.>.",
">.>.>.>.>.>.>.>.>.>.>.>.>.>.>.>.>.>.>.>.>.>.>.>.>.>.>.>.>./ i i u + @ @ # < < < 1 < < ; + + + + + + + y y 0 6 * * * O.>.>.>.>.>.>.>.>.>.>.>.>.>.>.>.>.>.>.>.>.>.",
">.>.>.>.>.>.>.>.>.>.>.>.>.>.>.>.>.>.>.>.>.>.>.>.>.-.s p s - O o + + + + ] d.>.>.>.>.>.;.+ + + + + + o 5.2.2.&.* > * +.>.>.>.>.>.>.>.>.>.>.>.>.>.>.>.>.>.>.>.>.>.",
">.>.>.>.>.>.>.>.>.>.>.>.>.>.>.>.>.>.>.>.>.>.>.>.>.O.r r w - + + + + + + ] d.>.>.>.>.>.;.@ + + + + + o 6.2.2.$.* > * +.>.>.>.>.>.>.>.>.>.>.>.>.>.>.>.>.>.>.>.>.>.",
">.>.>.>.>.>.>.>.>.>.>.>.>.>.>.>.>.>.>.>.>.>.>.>.>.O.t i e ; + + + + + 2 ] d.d.>.>.>.>.-.2 + + + + + o 5.4.2.$.> > > O.>.>.>.>.>.>.>.>.>.>.>.>.>.>.>.>.>.>.>.>.>.",
">.>.>.>.>.>.>.>.>.>.>.>.>.>.>.>.>.>.>.>.>.>.>.>.>.:.| | | g + + + + + + ] d.>.>.>.d.d.-.@ + + + + + o <.<.d.-.} ] } :.>.>.>.>.>.>.>.>.>.>.>.>.>.d.>.>.>.>.>.>.>.",
">.>.>.>.>.>.>.>.>.>.>.>.>.>.>.>.>.>.>.>.>.>.>.>.>.>.>.>.d.M + + + + + 2 ] >.>.>.>.>.>.-.@ @ + + + + O >.>.>.>.>.>.>.>.>.>.>.>.>.>.>.>.>.>.>.>.>.>.>.>.>.>.>.>.>.",
">.>.>.>.>.>.>.>.>.>.>.>.>.>.>.>.>.>.>.>.>.>.>.>.>.>.>.>.>.M + + + + + + ] >.>.>.>.>.d.-.+ 2 + + + + O >.>.>.>.>.>.>.>.>.>.>.>.>.>.>.>.>.>.>.>.>.>.>.>.>.>.>.>.>.",
">.>.>.>.>.>.>.>.>.>.>.>.>.>.>.>.>.>.>.>.>.>.>.>.>.>.>.>.d.M + + + + + 2 ] d.>.>.>.>.>.-.@ + + + + + O >.>.>.>.>.>.>.>.>.>.>.>.>.>.>.>.>.>.>.>.>.>.>.>.>.>.>.>.>.",
">.>.>.>.>.>.>.>.>.>.>.>.>.>.>.>.>.>.>.>.>.>.>.>.>.>.>.d.d.M + + + + + + ] d.>.>.>.>.>.;.+ + + + + + O >.>.>.>.>.>.>.>.>.>.>.>.>.>.>.>.>.>.>.>.>.>.>.>.>.>.>.>.>.",
">.>.>.>.>.>.>.>.>.>.>.>.>.>.>.>.>.>.>.>.>.>.>.>.>.>.>.>.>.M + + + + + + ] d.>.>.>.>.d.-.+ + + + + + O >.>.>.>.>.>.>.>.>.>.>.>.>.>.>.>.>.>.>.>.>.>.>.>.>.>.>.>.>.",
">.>.>.>.>.>.>.>.>.>.>.>.>.>.>.>.>.>.>.>.>.>.>.>.>.>.>.>.>.M 2 + + + + 2 ] d.>.>.>.d.d.+.2 + + + + + + >.>.>.>.>.>.>.>.>.>.>.>.>.>.>.>.>.>.>.>.>.>.>.>.>.>.>.>.>.",
">.>.>.>.>.>.>.>.>.>.>.>.>.>.>.>.>.>.>.>.>.>.>.>.>.>.>.>.d.N ; ; ; ; ; ; } d.>.>.>.>.>.+.; ; ; ; ; ; 1 >.>.>.>.>.>.>.>.>.>.>.>.>.>.>.>.>.>.>.>.>.>.>.>.>.>.>.>.>.",
">.>.>.>.>.>.>.>.>.>.>.>.>.>.>.>.>.>.>.>.>.>.>.>.>.>.>.>.d.| Q Q x x x x o.d.>.>.>.>.>.:.m Q Q Q Q x ^ >.>.>.>.>.>.>.>.>.>.>.>.>.>.>.>.>.>.>.>.>.>.>.>.>.>.>.>.>.",
">.>.>.>.>.>.>.>.>.>.>.>.>.>.>.>.>.>.>.>.>.>.>.>.>.>.>.>.d.| W W W W W W X.>.>.>.>.>.>.:.W W W W W R ! >.>.>.>.>.>.>.>.>.>.>.>.>.>.>.>.>.>.>.>.>.>.>.>.>.>.>.>.>.",
">.>.>.>.>.>.>.>.>.>.>.>.>.>.>.>.>.>.>.>.>.>.>.>.>.>.>.>.d.| E W W R W W o.>.>.>.>.>.>.:.W R W W W W W >.>.>.>.>.>.>.>.>.>.>.>.>.>.>.>.>.>.>.>.>.>.>.>.>.>.>.>.>.",
">.>.>.>.>.>.>.>.>.>.>.>.>.>.>.>.>.>.>.>.>.>.>.>.>.>.>.>.>.+.O.O.O.O.O.O.:.>.>.>.>.>.>.>.O.O.O.+.O.O.+.>.>.>.>.>.>.>.>.>.>.>.>.>.>.>.>.>.>.>.>.>.>.>.>.>.>.>.>.>.",
">.>.>.>.>.>.>.>.>.>.>.>.>.>.>.>.>.>.>.>.>.>.>.>.>.>.>.>.>.>.>.>.>.>.>.>.>.>.>.>.>.>.>.>.>.>.>.>.d.d.>.>.>.>.>.>.>.>.>.>.>.>.>.>.>.>.>.>.>.>.>.>.>.>.>.>.>.>.>.>."
};
