/* XPM */
static char *_39326452935445adb3f6910c869e6e8rjbUk0b2WijLSuzz[] = {
/* columns rows colors chars-per-pixel */
"80 80 141 2 ",
"   c #824300",
".  c #8B4A01",
"X  c #914F00",
"o  c #955300",
"O  c #9A5500",
"+  c #975D02",
"@  c #9D5A00",
"#  c #995B16",
"$  c #915718",
"%  c #975E1B",
"&  c #9C6312",
"*  c #A66602",
"=  c #AA6B05",
"-  c #A56C0A",
";  c #AE7305",
":  c #AB710C",
">  c #B17606",
",  c #B57B06",
"<  c #B17309",
"1  c #B67B0A",
"2  c #B97E0C",
"3  c #A76E1C",
"4  c #AA6F1C",
"5  c #B87C11",
"6  c #8B5724",
"7  c #945D24",
"8  c #9E6624",
"9  c #A46724",
"0  c #A26A26",
"q  c #A36C29",
"w  c #A7712C",
"e  c #AB752F",
"r  c #AF792E",
"t  c #B37D2C",
"y  c #AD7730",
"u  c #A67B37",
"i  c #AF7931",
"p  c #A57839",
"a  c #AC793B",
"s  c #B37D34",
"d  c #BC820D",
"f  c #BF8510",
"g  c #BD851E",
"h  c #BA842F",
"j  c #B68036",
"k  c #B88237",
"l  c #BC8B34",
"z  c #B48139",
"x  c #BA8439",
"c  c #BE883B",
"v  c #C18712",
"b  c #C28814",
"n  c #C1871A",
"m  c #C58C1B",
"M  c #C98F1B",
"N  c #CB911D",
"B  c #C48D21",
"V  c #C48F2A",
"C  c #CE9422",
"Z  c #CD9528",
"A  c #D09626",
"S  c #D59B27",
"D  c #D39A2C",
"F  c #C48E3F",
"G  c #CA9235",
"H  c #C3933F",
"J  c #D69D30",
"K  c #E2A93D",
"L  c #B18344",
"P  c #B5894D",
"I  c #B48F53",
"U  c #B1955E",
"Y  c #B69B63",
"T  c #BC9E61",
"R  c #BAA168",
"E  c #C59C4D",
"W  c #D7AF49",
"Q  c #CBA65A",
"!  c #CDAB59",
"~  c #DBB955",
"^  c #E3AB41",
"/  c #ECB444",
"(  c #F1B847",
")  c #F6BD4A",
"_  c #CDB36B",
"`  c #C5AD70",
"'  c #C6B174",
"]  c #CDB570",
"[  c #CAB678",
"{  c #CDBA7C",
"}  c #FFC54F",
"|  c #FFC651",
" . c #FFCB55",
".. c #FFCE5B",
"X. c #FFD05D",
"o. c #DEC57B",
"O. c #EFCE6D",
"+. c #F0C964",
"@. c #EBD36B",
"#. c #FFD464",
"$. c #FFD669",
"%. c #FFD86D",
"&. c #E3CB7F",
"*. c #EED870",
"=. c #F1DD74",
"-. c #FFDA72",
";. c #FFD37C",
":. c #F7DD78",
">. c #FFDD7C",
",. c #FFE475",
"<. c #FFE27C",
"1. c #FFEC7E",
"2. c #D4C383",
"3. c #DBC783",
"4. c #DBCC89",
"5. c #E4CF84",
"6. c #E5CF88",
"7. c #EBD182",
"8. c #E3D28D",
"9. c #EDDA8C",
"0. c #FFD782",
"q. c #FFDD82",
"w. c #EEDC90",
"e. c #FFE384",
"r. c #FFEB81",
"t. c #FFE689",
"y. c #FFEA8E",
"u. c #FFF284",
"i. c #EFE49C",
"p. c #FFE491",
"a. c #FFEC95",
"s. c #FFEE99",
"d. c #FFF495",
"f. c #FFF09C",
"g. c #FFF19D",
"h. c #FFF49E",
"j. c #FFF1A3",
"k. c #FFF6A0",
"l. c #FFF7AA",
"z. c #FFF7AB",
"x. c #FFF9AB",
/* pixels */
"F F F F F F F F F F F F F F F F F F F F F F F F F F F F F F F F F F F F F F F F F F F F F F F F F F F F F F F F F F F F F F F F F F F F F F F F F F F F F F F F ",
"F F F F F F F F F F F F F F F F F F F F F F F F F F F F F F F F F F F F F F F F F F F F F F F F F F F F F F F F F F F F F F F F F F F F F F F F F F F F F F F F ",
"F F F F F F F F F F F F F F F F F F F F F F F F F F F F F F F F F F F F F F F F F F F F F F F F F F F F F F F F F F F F F F F F F F F F F F F F F F F F F F F F ",
"F F F F F F F F F F F F F F F F F F F F F F F F F F F F F F F F F F F F F F F F F F F F F F F F F F F F F F F F F F F F F F F F F F F F F F F F F F F F F F F F ",
"F F F F F F F F F F F F F F F F F F F F F F F F F F F F F F F F F F F F F F F F F F F F F F F F F F F F F F F F F F F F F F F F F F F F F F F F F F F F F F F F ",
"F F F F F F F F F F F F F F F F F F F F F F F F F F F F F F F F F F F F F F F F F F F F F F F F F F F F F F F F F F F F F F F F F F F F F F F F F F F F F F F F ",
"F F F F F F F F F F F F F F F F F F F F F F F F F F F F F F F F F F F F F F F F F F F F F F F F F F F F F F F F F F F F F F F F F F F F F F F F F F F F F F F F ",
"F F F F F F F F F F F F F F F F F F F F F F F F F F F F F F F F F F F F F F F F F F F F F F F F F F F F F F F F F F F F F F F F F F F F F F F F F F F F F F F F ",
"F F F F F F F F F F F F F F F F F F F F F F F F F F F F F F F F F F F F F F F F F F F F F F F F F F F F F F F F F F F F F F F F F F F F F F F F F F F F F F F F ",
"F F F F F F F F F F F F F F F F F F F F F F F F F F F F F F F F F F F F F F F F F F F F F F F F F F F F F F F F F F F F F F F F F F F F F F F F F F F F F F F F ",
"F F F F F F F F F F F F F F F F F F F F F F F F F F F F F F F F F F F F F F F F F F F F F F F F F F F F F F F F F F F F F F F F F F F F F F F F F F F F F F F F ",
"F F F F F F F F F F F F F F F F F F F F F F F F F F F F F F F F F F F F F F F F F F F F F F F F F F F F F F F F F F F F F F F F F F F F F F F F F F F F F F F F ",
"F F F F F F F F F F F F F F F F F F F F F F F F F F F F F F F F F F F F F F F F F F F F F F F F F F F F F F F F F F F F F F F F F F F F F F F F F F F F F F F F ",
"F F F F F F F F F F F F F F F F F F F F F F F F F F F F F F F F F F F F F F F F F F F F F F F F F F F F F F F F F F F F F F F F F F F F F F F F F F F F F F F F ",
"F F F F F F F F F F F F F F F F F F F F F F F F F F F F F F F F F F F F F F F F F F F F F F F F F F F F F F F F F F F F F F F F F F F F F F F F F F F F F F F F ",
"F F F F F F F F F F F F F F F F F F F F F F F F F F F F F F F F F F F F F F F F F F F F F F F F F F F F F F F F F F F F F F F F F F F F F F F F F F F F F F F F ",
"F F F F F F F F F F F F F F F F F F F F F F F F F F F F F F F F F F F F F F F F F F F F F F F F F F F F F F F F F F F F F F F F F F F F F F F F F F F F F F F F ",
"F F F F F F F F F F F F F F F F F F F F F F F F F F F F F F F F F F F F F F F F F F F F F F F F F F F F F F F F F F F F F F F F F F F F F F F F F F F F F F F F ",
"F F F F F F F F F F F F F F F F F F F F F F F F F F F F F F F F F F F F F F F F F F F F F F F F F F F F F F F F F F F F F F F F F F F F F F F F F F F F F F F F ",
"F F F F F F F F F F F F F F F F F F F F F F F F F F F F F F F F F F F F F F F F F F F F F F F F F F F F F F F F F F F F F F F F F F F F F F F F F F F F F F F F ",
"F F F F F F F F F F F F F F F F F F F F F F F F F F F F F F F F F F F F F F F F F F F F F F F F F F F F F F F F F F F F F F F F F F F F F F F F F F F F F F F F ",
"F F F F F F F F F F F F F F F F F F F F F F F F F F F F F F F F F F F F F F F F F F F F F F F F F F F F F F F F F F F F F F F F F F F F F F F F F F F F F F F F ",
"F F F F F F F F F F F F F F F F F F F F F F F F F F F F F F F F F F F F E F F F F F F F F F F F F F F F F F F F F F F F F F F F F F F F F F F F F F F F F F F F ",
"F F F F F F F F F F F F F F F F F F F F F F F F F F F F E x e e r w w w e e e x F F F F F F F F F F F F F F F F F F F F F F F F F F F F F F F F F F F F F F F F ",
"F F F F F F F F F F F F F F F F F F F F F F F F F F F F F i                   q F F F F F F F F F F F F F F F F F F F F F F F F F F F F F F F F F F F F F F F F ",
"F F F F F F F F F F F F F F F F F F F F F F F F F F F c w I { ] ! ! ! ! ! _ { T w x F F F F F F F F F F F F F F F F F F F F F F F F F F F F F F F F F F F F F F ",
"F F F F F F F F F F F F F F F F F F F F F F F F F F F s   R l.g.<.<.<.>.>.a.z.{   w F E F F F F F F F F F F F F F F F F F F F F F F F F F F F F F F F F F F F F ",
"F F F F F F F F F F F F F F F F F F F F F F F F F c q I 2.5.e.>.$.$.$.#.$.-.q.7.2.U 9 j F F F F F F F F F F F F F F F F F F F F F F F F F F F F F F F F F F F F ",
"F F F F F F F F F F F F F F F F F F F F F F F F F s   Y l.a....... .| | | | | q.x.[   y F F F F F F F F F F F F F F F F F F F F F F F F F F F F F F F F F F F F ",
"F F F F F F F F F F F F F F F F F F F F F F F F F s   Y l.s.-.-.-.-.%.%.%.%.%.e.p.9.4.T 9 i F F F F F F F F F F F F F F F F F F F F F F F F F F F F F F F F F F ",
"F F F F F F F F F F F F F F F F F F F F F F F F F s   Y l.s.<.<.<.<.<.<.<.<.<.>.<.s.l.'   e E F F F F F F F F F F F F F F F F F F F F F F F F F F F F F F F F F ",
"F F F F F F F F F F F F F F F F F F F F F F F x 8 I 8.w.t.a.g.g.g.g.g.g.g.g.g.g.s.j.l.i.8.T & s F F F F F F F F F F F F F F F F F F F F F F F F F F F F F F F F ",
"F F F F F F F F F F F F F F F F F F F F F F F j   U x.g.<.t.x.x.z.l.l.l.l.l.l.l.x.l.l.l.l.`   i F F F F F F F F F F F F F F F F F F F F F F F F F F F F F F F F ",
"F F F F F F F F F F F F F F F F F F F F F F F j   U l.a.#.-.t.t.t.t.t.t.t.t.t.t.t.g.l.5.Q p   r F F F F F F F F F F F F F F F F F F F F F F F F F F F F F F F F ",
"F F F F F F F F F F F F F F F F F F F F F F F s   U l.a.X.$.<.<.<.<.<.>.<.<.<.<.<.a.l.o., +   s F F F F F F F F F F F F F F F F F F F F F F F F F F F F F F F F ",
"F F F F F F F F F F F F F F F F F F F F F F F j   U x.h.1.,.#.X.#.X.......X.X.t.h.5.E l , ; ; & $ s F F F F F F F F F F F F F F F F F F F F F F F F F F F F F F ",
"F F F F F F F F F F F F F F F F F F F F F F F z   Y l.k.u.,.X.X... .| } |  . .t.x.o., , , , , +   s F F F F F F F F F F F F F F F F F F F F F F F F F F F F F F ",
"F F F F F F F F F F F F F F F F F F F F F F F j   L 0.0.;.e.1.,...#.,.<.>.y.j.5.c V d d v 2 , +   i F F F F F F F F F F F F F F F F F F F F F F F F F F F F F F ",
"F F F F F F F F F F F F F F F F F F F F F F F z   L ;.;.;.>.u.,.X.$.<.<.<.a.l.o., , d v v , , +   s E F F F F F F F F F F F F F F F F F F F F F F F F F F F F F ",
"F F F F F F F F F F F F F F F F F F F F F F F x   L ;.;.u.u.u.@.m m B B m V V g , d v d v d , * @ .   s F F F F F F F F F F F F F F F F F F F F F F F F F F F F ",
"F F F F F F F F F F F F F F F F F F F F F F F j   L ;.q.r.u.u.@.v f v v m v v d , d v v d 2 , * @ .   s F F F F F F F F F F F F F F F F F F F F F F F F F F F F ",
"F F F F F F F F F F F F F F F F F F F F F F F j   U z.9.v v v v v N S S S S S N v d , d v 2 , = @ .   s F F F F F F F F F F F F F F F F F F F F F F F F F F F F ",
"F F F F F F F F F F F F F F F F F F F F F F F j   U l.w.v v v b v N S S S S S N v d , d v 2 1 3 9 7 6 s F F F F F F F F F F F F F F F F F F F F F F F F F F F F ",
"F F F F F F F F F F F F F F F F F F F F F F F k   U z.w.v N S S S C v N S S S N v v v , , * O 6.z.z.j.Y   y F F F F F F F F F F F F F F F F F F F F F F F F F F ",
"F F F F F F F F F F F F F F F F F F F F F F F j   I j.9.v N S S S C v N S S S N v d d 2 > t a 6.j.j.z.R # s x E F F F F F F F F F F F F F F F F F F F F F F F F ",
"F F F F F F F F F F F F F F F F F F F F F F F j   4 | / v N S S S C v v d N S C v d , = O 5.z.p.;.r.u.#.| t   x F F F F F F F F F F F F F F F F F F F F F F F F ",
"F F F F F F F F F F F F F F F F F F F F F F F k $ r ( / A A A A S N v v v N S m d 1 > z P 6.j.t.>.<.1...| E p s j E F F F F F F F F H F F F F F F F F F F F F F ",
"F F F F F F F F F F F F F F F F F F F F F F F F E s   s ) / f f v v v v v v f ; @ @ @ 3.z.p.;.e.u.#.|  .| -.<.s   r F F F F F F F F F F F F F F F F F F F F F F ",
"F F F F F F F F F F F F F F F F F F F F F F F F F s # r / ^ D Z 5 5 2 5 d 5 2 = @ @ o 3.x.p.;.:.=...| ) ( +.O.u   x F F F F F F F F F F F F F F F F F F F F F F ",
"F F F F F F F F F F F F F F F F F F F F F F F F F F F s   h ) ^ @ @ @ @ @ @ @ @ @ .   2.x.d.u.~ v / | J d 2 , o   x F F F F F F F F F F F F F F F F F F F F F F ",
"F F F F F F F F F F F F F F F F F F F F F F F F F F F s # t ^ G O O o o O o X X o % & ` 8.7.*.W M K / Z d > ; .   z H F F F F F F F F F F F F F F F F F F F F F ",
"F F F F F F F F F F F F F F F F F F F F F F F F F F F E E i                       y H w   : v C S M f d 1 * @ .   x F F F F F F F F F F F F F F F F F F F F F F ",
"F F F F F F F F F F F F F F F F F F F F F F F F F F F F F s 9 9 9 8 9 8 8 9 8 9 9 y F 9   : v C S m 2 d 2 * @ .   k F F F F F F F F F F F F F F F F F F F F F F ",
"F F F F F F F F F F F F F F F F F F F F F F F F F F F F F F F F F F F E F F F F E F E 9   = v C S v 1 f v * @ .   z F F F F F F F F F F F F F F F F F F F F F F ",
"F F F F F F F F F F F F F F F F F F F F F F F F F F F F F F F F F F F F F F F F F F F y 9 3 : n C 5 ; ; < @ o 9 q c F F F F F F F F F F F F F F F F F F F F F F ",
"F F F F F F F F F F F F F F F F F F F F F F F F F F F F F F F F F F F F F F F F F F F F E 0   < v = @ @ @ .   s F F F F F F F F F F F F F F F F F F F F F F F F ",
"F F F F F F F F F F F F F F F F F F F F F F F F F F F F F F F F F F F F F F F F F F F F F r q 3 - + X X o 9 w c F F F F F F F F F F F F F F F F F F F F F F F F ",
"F F F F F F F F F F F F F F F F F F F F F F F F F F F F F F F F F F F F F F F F F F F F F F F 9           s F F F F F F F F F F F F F F F F F F F F F F F F F F ",
"F F F F F F F F F F F F F F F F F F F F F F F F F F F F F F F F F F F F F F F F F F F F F F F s y w e e e c F F F F F F F F F F F F F F F F F F F F F F F F F F ",
"F F F F F F F F F F F F F F F F F F F F F F F F F F F F F F F F F F F F F F F F F F F F F F F F F E F F F F F F F F F F F F F F F F F F F F F F F F F F F F F F ",
"F F F F F F F F F F F F F F F F F F F F F F F F F F F F F F F F F F F F F F F F F F F F F F F F F F F F F F F F F F F F F F F F F F F F F F F F F F F F F F F F ",
"F F F F F F F F F F F F F F F F F F F F F F F F F F F F F F F F F F F F F F F F F F F F F F F F F F F F F F F F F F F F F F F F F F F F F F F F F F F F F F F F ",
"F F F F F F F F F F F F F F F F F F F F F F F F F F F F F F F F F F F F F F F F F F F F F F F F F F F F F F F F F F F F F F F F F F F F F F F F F F F F F F F F ",
"F F F F F F F F F F F F F F F F F F F F F F F F F F F F F F F F F F F F F F F F F F F F F F F F F F F F F F F F F F F F F F F F F F F F F F F F F F F F F F F F ",
"F F F F F F F F F F F F F F F F F F F F F F F F F F F F F F F F F F F F F F F F F F F F F F F F F F F F F F F F F F F F F F F F F F F F F F F F F F F F F F F F ",
"F F F F F F F F F F F F F F F F F F F F F F F F F F F F F F F F F F F F F F F F F F F F F F F F F F F F F F F F F F F F F F F F F F F F F F F F F F F F F F F F ",
"F F F F F F F F F F F F F F F F F F F F F F F F F F F F F F F F F F F F F F F F F F F F F F F F F F F F F F F F F F F F F F F F F F F F F F F F F F F F F F F F ",
"F F F F F F F F F F F F F F F F F F F F F F F F F F F F F F F F F F F F F F F F F F F F F F F F F F F F F F F F F F F F F F F F F F F F F F F F F F F F F F F F ",
"F F F F F F F F F F F F F F F F F F F F F F F F F F F F F F F F F F F F F F F F F F F F F F F F F F F F F F F F F F F F F F F F F F F F F F F F F F F F F F F F ",
"F F F F F F F F F F F F F F F F F F F F F F F F F F F F F F F F F F F F F F F F F F F F F F F F F F F F F F F F F F F F F F F F F F F F F F F F F F F F F F F F ",
"F F F F F F F F F F F F F F F F F F F F F F F F F F F F F F F F F F F F F F F F F F F F F F F F F F F F F F F F F F F F F F F F F F F F F F F F F F F F F F F F ",
"F F F F F F F F F F F F F F F F F F F F F F F F F F F F F F F F F F F F F F F F F F F F F F F F F F F F F F F F F F F F F F F F F F F F F F F F F F F F F F F F ",
"F F F F F F F F F F F F F F F F F F F F F F F F F F F F F F F F F F F F F F F F F F F F F F F F F F F F F F F F F F F F F F F F F F F F F F F F F F F F F F F F ",
"F F F F F F F F F F F F F F F F F F F F F F F F F F F F F F F F F F F F F F F F F F F F F F F F F F F F F F F F F F F F F F F F F F F F F F F F F F F F F F F F ",
"F F F F F F F F F F F F F F F F F F F F F F F F F F F F F F F F F F F F F F F F F F F F F F F F F F F F F F F F F F F F F F F F F F F F F F F F F F F F F F F F ",
"F F F F F F F F F F F F F F F F F F F F F F F F F F F F F F F F F F F F F F F F F F F F F F F F F F F F F F F F F F F F F F F F F F F F F F F F F F F F F F F F ",
"F F F F F F F F F F F F F F F F F F F F F F F F F F F F F F F F F F F F F F F F F F F F F F F F F F F F F F F F F F F F F F F F F F F F F F F F F F F F F F F F ",
"F F F F F F F F F F F F F F F F F F F F F F F F F F F F F F F F F F F F F F F F F F F F F F F F F F F F F F F F F F F F F F F F F F F F F F F F F F F F F F F F ",
"F F F F F F F F F F F F F F F F F F F F F F F F F F F F F F F F F F F F F F F F F F F F F F F F F F F F F F F F F F F F F F F F F F F F F F F F F F F F F F F F ",
"F F F F F F F F F F F F F F F F F F F F F F F F F F F F F F F F F F F F F F F F F F F F F F F F F F F F F F F F F F F F F F F F F F F F F F F F F F F F F F F F "
};
