/* XPM */
static char *_940419286094e9cb165c1f1541c07ea4FJNARYcPstOSIOY[] = {
/* columns rows colors chars-per-pixel */
"80 80 175 2 ",
"   c #000B1B",
".  c #0B151C",
"X  c #11171C",
"o  c #13191D",
"O  c #1B1B1D",
"+  c #26141A",
"@  c #231D1D",
"#  c #2D1B1B",
"$  c #331F1C",
"%  c #3A1F1C",
"&  c #2C231F",
"*  c #35221E",
"=  c #3D241E",
"-  c #352A1F",
";  c #1F1F20",
":  c #212122",
">  c #26272A",
",  c #2C2C2C",
"<  c #352520",
"1  c #3B2620",
"2  c #362A20",
"3  c #3B2B21",
"4  c #333435",
"5  c #3B3B3B",
"6  c #41261E",
"7  c #48271D",
"8  c #41291E",
"9  c #4E2A1E",
"0  c #582E1F",
"q  c #5C301F",
"w  c #61331F",
"e  c #452B21",
"r  c #4C2E22",
"t  c #522F22",
"y  c #4E3222",
"u  c #483526",
"i  c #4C3923",
"p  c #533224",
"a  c #5A3625",
"s  c #543C24",
"d  c #5E3927",
"f  c #5F3928",
"g  c #403E3E",
"h  c #6E2420",
"j  c #752620",
"k  c #633421",
"l  c #6A3720",
"z  c #643B26",
"x  c #6C3B24",
"c  c #643E28",
"v  c #743D24",
"b  c #793E23",
"n  c #5D4225",
"m  c #47403A",
"M  c #5A4537",
"N  c #634626",
"B  c #6B4525",
"V  c #654927",
"C  c #6E4D27",
"Z  c #6C462A",
"A  c #6F4E28",
"S  c #7D4124",
"D  c #714F29",
"F  c #7A4F28",
"G  c #6E5029",
"H  c #74532A",
"J  c #7B562B",
"K  c #7D5A2C",
"L  c #604230",
"P  c #724A34",
"I  c #794E36",
"U  c #7E543C",
"Y  c #424243",
"T  c #464749",
"R  c #474849",
"E  c #494949",
"W  c #5C5248",
"Q  c #675748",
"!  c #8D2922",
"~  c #912A22",
"^  c #9D2E25",
"/  c #8F3728",
"(  c #813A29",
")  c #8B3A2A",
"_  c #943624",
"`  c #963B25",
"'  c #993429",
"]  c #9B3A2C",
"[  c #A22F26",
"{  c #A73027",
"}  c #A5322A",
"|  c #AC3229",
" . c #A53A2C",
".. c #B4342B",
"X. c #BB362C",
"o. c #BB3A2E",
"O. c #C63A2F",
"+. c #C73C30",
"@. c #CE3C31",
"#. c #D33D32",
"$. c #DA3F34",
"%. c #814223",
"&. c #874B26",
"*. c #86482A",
"=. c #894D2E",
"-. c #994427",
";. c #8E502A",
":. c #835D2D",
">. c #98552A",
",. c #91582A",
"<. c #8B4F30",
"1. c #8E5234",
"2. c #81543A",
"3. c #8E5739",
"4. c #915637",
"5. c #915738",
"6. c #945A3B",
"7. c #A85D2F",
"8. c #B0552F",
"9. c #85612E",
"0. c #8A622E",
"q. c #9C642F",
"w. c #8E6530",
"e. c #8F6831",
"r. c #956231",
"t. c #946B32",
"y. c #996F33",
"u. c #9B7034",
"i. c #A96330",
"p. c #AD6B33",
"a. c #B16A33",
"s. c #A17435",
"d. c #A77837",
"f. c #A97A37",
"g. c #A3783D",
"h. c #AD7D39",
"j. c #B37336",
"k. c #B17B37",
"l. c #B37C38",
"z. c #B97D39",
"x. c #DB4034",
"c. c #EC4438",
"v. c #F5473A",
"b. c #FF4A3D",
"n. c #8C5E43",
"m. c #8B6B46",
"M. c #976647",
"N. c #9A6344",
"B. c #9F6A4B",
"V. c #9C7544",
"C. c #A16847",
"Z. c #A46D4C",
"A. c #A57A43",
"S. c #AC7F41",
"D. c #A7724D",
"F. c #AB744D",
"G. c #B27B4B",
"H. c #AD7552",
"J. c #B27B50",
"K. c #B3813A",
"L. c #B5833B",
"P. c #B6843B",
"I. c #BB843B",
"U. c #BA873C",
"Y. c #BD893D",
"T. c #BF8A3E",
"R. c #C18C3E",
"E. c #C38D3F",
"W. c #C48E3F",
"Q. c #C58F3F",
"!. c #B48441",
"~. c #BE8747",
"^. c #BE8945",
"/. c #BA834A",
"(. c #C18B42",
/* pixels */
"W.W.W.W.W.W.W.W.W.W.W.W.W.W.W.W.W.W.W.W.W.W.W.W.W.W.W.W.W.W.W.W.W.W.W.W.W.W.W.W.W.W.Q.W.W.W.W.W.W.W.W.W.W.W.W.W.W.W.W.W.W.W.W.W.W.W.W.W.W.W.W.W.W.W.W.W.W.W.W.W.",
"W.W.W.W.W.W.W.W.W.W.W.W.W.W.W.W.W.W.W.W.W.W.W.W.W.W.W.W.W.W.W.W.W.W.W.W.W.W.W.W.W.W.W.W.W.W.W.W.W.W.W.W.W.W.W.W.W.W.W.W.W.W.W.W.W.W.W.W.W.W.W.W.W.W.W.W.W.W.W.W.",
"W.W.W.W.W.W.W.W.W.W.W.W.W.W.W.W.W.W.W.W.W.W.W.W.W.W.W.W.W.W.W.W.W.W.W.W.W.W.W.W.W.W.(.W.W.W.W.W.W.W.W.W.W.W.W.W.W.W.W.W.W.W.W.W.W.W.W.W.W.W.W.W.W.W.W.W.W.W.W.W.",
"W.W.W.W.W.W.W.W.W.W.W.W.W.W.W.W.W.W.W.W.W.W.W.W.W.W.W.W.W.W.W.W.W.W.W.W.W.W.W.W.Q.Q.Q.W.W.W.W.W.W.W.W.W.W.W.W.W.W.Q.W.W.W.W.W.W.W.W.W.W.W.W.W.W.W.W.W.W.W.W.W.W.",
"W.W.W.W.W.W.W.W.W.W.W.W.W.W.W.W.W.W.W.W.W.W.W.W.W.W.W.W.W.W.W.W.W.W.W.W.W.W.W.W.W.W.W.W.Q.W.W.W.W.W.W.W.W.W.W.W.W.W.W.W.W.W.W.W.W.W.W.W.W.W.W.W.W.W.W.W.W.W.W.W.",
"W.W.W.W.W.W.W.W.W.W.W.W.W.W.W.W.W.W.W.W.W.W.W.W.W.W.W.W.W.W.W.W.W.W.W.W.W.W.W.W.W.W.W.W.W.W.W.W.W.W.W.W.W.W.W.W.W.W.W.W.W.W.W.W.W.W.W.W.W.W.W.W.W.W.W.W.W.W.W.W.",
"W.W.W.W.W.W.W.W.W.W.W.W.W.W.W.W.W.W.W.W.W.W.W.W.W.W.W.W.W.W.W.W.W.W.W.W.W.W.W.W.W.W.W.W.W.W.W.W.W.W.W.W.W.W.W.W.W.W.W.W.W.W.W.W.W.W.W.W.W.W.W.W.W.W.W.W.W.W.W.W.",
"W.W.W.W.W.W.W.W.W.W.W.W.W.W.W.W.W.W.W.W.W.W.W.W.W.W.W.W.W.W.W.W.W.W.W.W.W.W.W.W.W.W.W.W.W.W.W.W.W.W.W.W.W.W.W.W.W.W.W.W.W.W.s.s.U.W.K.s.U.W.W.W.W.W.W.W.W.W.W.W.",
"W.W.W.W.W.W.Q.W.W.W.W.W.W.W.W.W.W.W.W.W.W.W.W.W.W.W.W.W.W.W.W.W.W.W.W.W.W.W.W.W.W.W.W.W.W.W.W.W.W.W.W.W.W.W.W.W.W.W.W.W.W.W.8 * K.E.K * d.W.W.W.W.W.W.W.W.W.W.W.",
"W.W.W.W.W.W.W.Q.W.W.W.W.W.W.W.W.W.W.W.W.W.W.W.W.W.W.W.W.W.W.W.W.W.W.W.W.W.W.W.W.W.W.W.W.W.W.W.W.Q.W.W.W.W.W.W.W.W.W.W.E.t.u.y 7 w.u.N # d.W.W.W.W.W.W.W.W.W.W.W.",
"W.W.W.W.W.W.(.Q.W.W.W.W.W.W.W.W.W.W.W.W.W.W.W.W.W.W.W.W.W.W.W.W.W.W.W.W.W.W.W.W.W.W.W.W.W.W.W.W.W.W.W.W.W.W.W.W.W.^.(.T.. O d d * O O O d.W.W.W.W.W.W.W.W.W.W.W.",
"W.W.W.W.W.W.W.W.W.W.W.W.W.W.W.W.W.W.W.W.W.W.W.W.W.W.W.W.W.W.W.W.W.W.W.W.W.W.W.W.W.W.W.W.W.W.W.W.W.W.W.W.W.W.Q.^.!.h.h.s.* * x x * O 8 9 t.h.L.W.W.W.W.W.W.W.W.W.",
"W.W.W.W.W.W.W.W.W.W.W.W.W.W.W.W.W.W.W.W.W.W.W.W.W.W.W.W.W.W.W.W.W.W.W.W.W.W.W.W.W.W.W.W.W.W.W.W.W.W.W.W.W.W.W.!.E Y O @ f f S %.6 O w %.r O y.W.W.W.W.W.W.W.W.W.",
"W.W.W.W.W.W.W.W.W.W.W.W.W.W.W.W.W.W.W.W.W.W.W.W.W.W.W.W.W.W.W.W.W.W.W.W.W.W.W.W.W.W.W.W.W.W.W.W.W.W.W.W.W.W.W.L.E 5 : < N z %.%.9 * b %.z u t.L.T.E.W.W.W.W.W.W.",
"W.W.W.W.W.W.W.W.W.W.W.W.W.W.W.W.W.W.W.W.W.W.W.W.W.W.W.W.W.W.W.W.W.W.W.W.W.W.W.W.W.W.W.W.W.W.W.W.W.W.W.W.Q.W.(.K.O < f z %.%.%.%.%.%.%.%.C.H.U $ 0.W.W.W.W.W.W.W.",
"W.W.W.W.W.W.W.W.W.W.W.W.W.W.W.W.W.W.W.W.W.W.W.W.W.W.W.W.W.W.W.W.W.W.W.W.W.W.W.W.W.W.W.W.W.W.W.W.W.W.W.W.E.Q.W.l.O = f z %.%.%.%.%.%.%.( Z.H.U $ 0.W.W.W.W.W.W.W.",
"W.W.W.W.W.W.W.W.W.W.W.W.W.W.W.W.W.W.W.W.W.W.W.W.W.W.W.W.W.W.W.W.W.W.W.W.W.W.W.W.W.W.W.W.W.W.W.W.W.W.W.W.(.d.O O O - d z S %.%.%.x d = O w &.N.H.n.$ A W.W.W.W.W.",
"W.W.W.W.W.W.W.W.W.W.W.W.W.W.W.W.W.W.W.W.W.W.W.W.W.W.W.W.W.W.W.W.W.W.W.W.W.W.W.W.W.W.W.W.W.W.W.W.W.W.W.W.(.g.O O O * d z %.%.%.%.c d 3 O v %.N.H.n.= H W.W.W.W.W.",
"W.W.W.W.W.W.W.W.W.W.W.W.W.W.W.W.W.W.W.W.W.W.W.W.W.W.W.W.W.W.W.W.W.W.W.W.W.W.W.W.W.W.W.W.W.W.W.W.W.W.W.V.Q M O & a z S S %.%.%.%.S S w a b %.*.=.6.D.N.s C W.W.W.",
"W.W.W.W.W.W.W.W.W.W.W.W.W.W.W.W.W.W.W.W.W.W.W.W.W.W.W.W.W.W.W.W.W.W.W.W.W.W.W.W.W.W.W.W.W.W.W.W.W.Q.Q.V.E 5 O < d c S %.%.%.%.%.%.%.x d b S %.%.6.H.N.$ s W.W.W.",
"W.W.W.W.W.W.W.W.W.W.W.W.W.W.W.W.W.W.W.W.W.W.W.W.W.W.W.W.W.W.W.W.W.W.W.W.W.W.W.W.W.W.W.W.W.W.W.W.W.m.W m : 3 a z S S %.%.%.%.7 = b %.S %.%.%.%.%.6.H.H.H.H.(.W.W.",
"W.W.W.W.W.W.W.W.W.W.W.W.W.W.W.W.W.W.W.W.W.W.W.W.W.W.W.W.W.W.W.W.W.W.W.W.W.W.W.W.W.W.W.W.W.W.W.W.W.m.R 5 O 3 d z %.%.%.( %.%.* $ b %.%.%.%.%.%.%.r.H.H.H.J.(.W.W.",
"W.W.W.W.W.W.W.W.W.W.W.W.W.W.W.W.W.W.W.W.W.W.W.W.W.W.W.W.W.W.W.W.W.W.W.W.W.W.W.W.W.W.W.W.W.W.Q.Q.W.9., > O 1 f z %.;.Z.B.9 9 h.k.B 9 9 9 b %.%.%.*.Q P f L C C W.",
"W.W.W.Q.W.W.W.W.W.W.W.W.W.W.W.W.W.W.W.W.W.W.W.W.W.W.W.W.W.W.W.W.W.W.W.W.W.W.W.W.W.W.W.W.W.W.Q.Q.W.K O O O 3 f z %.1.H.D.# # E.E.N $ $ % v %.%.%.v d p @ @ $ # (.",
"W.W.W.W.W.W.W.W.W.W.W.W.W.W.W.W.W.W.W.W.W.W.W.W.W.W.W.W.W.W.W.W.W.W.W.W.W.W.W.W.W.W.W.W.W.W.W.t.:.s ; 2 r z b b %.1.H.H.# # U.W.d.s.u.s.F q b %.S v x y 7 $ * W.",
"W.W.W.W.W.W.W.W.W.W.W.W.W.W.W.W.W.W.W.W.W.W.W.W.W.W.W.W.W.W.W.W.W.W.W.W.W.W.W.W.W.W.W.W.W.W.(.V ; o ; e f x S %.%.1.H.D.$ # R.E.W.W.W.W.H * w %.%.S S d d $ # W.",
"W.W.W.W.W.W.W.W.W.W.W.W.W.W.W.W.W.W.W.W.W.W.W.W.W.W.W.W.W.W.E.E.W.W.Q.W.W.W.W.W.W.W.W.(.W.s.t.i O < e a x S %.%.%.=.N.N.U 2.t.t.Y.W.W.W.s.0.F w k x a r a 0.w.W.",
"W.W.W.W.W.W.W.W.W.W.W.W.W.W.W.W.W.W.W.W.W.W.W.W.W.W.W.W.W.W.W.E.W.W.W.W.W.W.W.W.W.W.W.(.W.H O O O r f v %.S %.%.%.%.%.&.H.H.= % L.W.W.W.W.E.0.* $ $ # O i Q.W.W.",
"W.W.Q.W.W.f.d.d.d.U.W.W.W.W.W.W.W.E.z.j.z.l.j.l.z.j.j.l.z.j.l.z.U.W.U.d.f.d.d.d.d.d.d.d.d.n ; @ @ y f v %.%.%.%.%.%.%.*.H.H.3 * K.W.W.W.Q.W.u.J J J J H :.W.W.W.",
"W.W.Q.(.Q.- O O O s.W.W.W.W.E.E.W.z.~ ~ ~ ~ ~ ~ ~ ~ ~ ~ ~ ~ ~ ~ i.W.t.* * $ $ $ $ $ $ O O O O # $ p f v %.%.%.%.%.%.%.*.J.H.1 * L.W.W.W.Q.W.(.W.E.E.W.W.W.W.W.W.",
"W.W.W.K.U.- O > > t.L.U.W.W.W.W.U.j.[ ^ [ ^ ^ [ | | | | ^ ~ ^ ^ 7.L.0.= = = = 7 7 = = @ O @ @ $ $ r a z b S %.%.%.*.<.<.B.Z.Z N L.W.W.W.Q.Q.W.W.W.W.W.W.W.W.W.W.",
"W.W.T.. O O O Y E 4 O e.W.W.W.j.~ [ @.@.@.@.@.@.b.b.b.b.X.~ ..@.} % r d d z z %.%.f z * $ $ * $ $ $ $ r f x %.%.%.<.H.D.# # R.(.W.W.W.W.Q.Q.W.W.W.W.W.W.W.W.W.W.",
"W.L.h.o O O O 5 Y , O K K.l.U.a.{ | @.#.$.$.$.$.b.b.c.c.o.^ ..o.' = p c x z x %.%.z x 7 = * $ = = = = y 0 x S %.%.4.H.H.$ # U.(.W.W.W.W.W.W.W.W.W.W.W.W.W.W.W.W.",
"T.. O O O O O O O O O O O h ~ | @.@.@.#.b.b.b.b.b.b.| ~ o.@.] d d d v %.%.%.%.%.%.%.%.z d 8 * a d d d r * 0 %.%.%.<.H.D.# # (.(.W.W.W.W.W.W.W.W.W.W.W.W.W.W.W.W.",
"W.X O O O O O - 3 & O O O h ~ | @.@.#.#.b.b.b.b.b.b.| ~ X.@.] d d z v %.%.%.%.%.%.%.%.z z e * a d f z p = q %.%.%.1.G.D.# # W.W.W.W.W.W.W.W.W.W.W.W.W.W.W.W.W.W.",
"W.X O O O O o K.W.K O O O h ~ | @.x.b.b.b.b.b.b.! ! O.@.) d d d x %.S %.%.%.%.%.%.%.%.%.S x d = $ l %.%.%.%.%.%.%.1.H.H.# $ W.W.W.W.W.W.W.W.W.W.W.W.W.W.W.W.W.W.",
"E.X O O O O O K.W.K . X o h ~ | @.x.b.b.b.b.b.b.! ~ O.@.) f d f v %.%.%.%.%.S %.( %.%.%.%.z d e $ l ( %.%.%.%.%.S 1.J.D.+ + E.E.W.W.W.W.W.W.W.W.W.W.W.W.W.W.W.W.",
"E.X O O O O O K.W.W.T.p.! ..@.@.@.x.b.b.b.b.b.b.! ~ @.@.) d v S %.%.%.%.4.H.H.F.H.S %.%.%.%.S z d e 6 q %.%.%.%.%.S 3 0 U.R.E.E.W.W.W.W.W.W.W.W.W.W.Q.Q.W.W.W.W.",
"W.o O O O O X L.W.W.W.p.~ ..@.@.@.$.b.b.b.b.b.b.~ ~ O.@.) z v %.%.%.%.%.4.H.H.H.H.%.%.%.%.%.%.c d e $ k %.%.%.%.%.S * y W.W.W.W.W.W.W.W.W.W.W.W.W.W.W.Q.W.W.W.W.",
"E.o O Y Y @ O L.W.W.W.p.~ ..@.X.[ ..x.x.b.b.b.b.~ ~ O.@.) d v %.%.%.%.%.5.H.D.1.1.z x z x b %.S b b v b %.%.%.%.%.x * p W.W.W.W.W.W.W.W.W.W.W.W.W.W.W.(.W.W.W.W.",
"E.X : E E : o K.W.W.W.p.~ ..@.X.~ [ @.#.b.b.b.b.~ ~ O.@.) d v %.%.%.%.%.4.H.D.%.%.z d d f S S %.%.%.%.%.%.%.%.S %.v $ y W.W.W.W.W.W.W.W.W.W.W.W.W.W.W.W.W.W.W.W.",
"E.X : E E : O K.W.W.W.p.~ ..@.o.~ [ @.#.b.b.b.b.~ ~ O.@.) d c x v %.%.%.=.6.4.( %.b b r 7 z x S %.%.%.%.%.%.%.S x w % 8 0.w.W.W.W.W.W.W.W.W.W.W.W.W.W.W.W.W.W.W.",
"E.o : E E : O K.W.W.W.a.~ ..x...~ [ @.#.b.b.b.b.~ ~ O.#.) d d d x %.%.%.%.%.%.%.%.%.%.6 $ p f b %.%.%.%.%.%.%.S d a * * d d W.W.Q.W.Q.Q.W.W.W.W.W.W.W.W.W.W.W.W.",
"W.w.0.T E O O K t.K.Q.p.~ ..+.o.~ [ @.#.b.b.b.b.@.#.X...}  .( d v %.%.%.%.%.%.%.%.%.%.t r r r x v S %.%.%.<.N.3.y r r r v x /./.(.Q.Q.Q.W.W.W.W.W.W.W.W.W.W.W.W.",
"E.E.T.R E : O O O s.E.p.! ..@.X.! [ @.#.b.b.b.b.b.b.{ ~ X.@.] d x %.%.%.%.%.%.%.%.%.b z f 8 * a f v %.%.%.6.H.C.$ = d z S %.H.H.(.W.W.Q.W.W.W.W.W.W.W.W.W.W.W.W.",
"E.(.T.4 4 : O 4 5 g.W.z.p.8...........X.b.b.b.b.b.b.{ ! O.@.o. ./ k x x v %.%.%.%.v v f f p r a f f k v %.5.H.Z.$ * r t v x N.r.G.G.(.Q.W.W.W.Q.W.W.W.W.W.W.W.W.",
"W.W.T.. O O O Y E A.W.E.W.p.~ | @.O.~ [ b.b.b.b.b.b.{ ~ X.@.#.@.} $ e z z %.%.%.%.d d z f d d d z e $ a %.5.H.Z.$ $ $ * f z ( %.D.H.^.(.W.W.W.W.W.W.W.W.W.W.W.W.",
"W.W.T.. O O O Y E A.W.E.E.p.! | @.O.| ..b.b.b.b.b.b.{ ~ | X.X.X.' $ e r a l l l l p y t y p r p p 7 r w %.5.H.D.0.:.:.:.y y %.%.D.H.J.(.(.W.W.W.W.W.W.W.W.W.W.W.",
"W.W.T.. O O O Y E L.Q.W.W.p.! } @.@.@.#.b.b.b.b.b.b.{ ! ~ ~ ~ ~ j * % * $ $ $ $ $ $ $ * $ $ $ = * p d v ( 5.H.J.(.(.W.R.# $ S %.Z.H.H.H.(.(.Q.Q.Q.Q.Q.Q.W.W.W.W.",
"W.W.T.. O O O Y E V.E.Q.W.p.~ { o.O.@.#.v.v.b.b.c.c.{ ! ~ ~ -.>.=.A A A A A C C A C C C C C C C C d a z b 3.J.G.W.W.W.E.C C v v M.B.D.H.(.(.Q.Q.Q.Q.Q.Q.W.W.W.W.",
"W.W.T.. O O O Y E !.T.Q.W.p.~ ~ ~ { @.@.@.@.b.b.~ ~ ! ~ ~ ~ a.W.W.W.W.W.(.W.W.W.W.W.W.W.R.W.W.W.W.:.$ r d 2.H.G.W.W.W.W.W.W.6 $ a f N.H.(.(.(.(.W.W.Q.Q.W.W.W.W.",
"W.W.T.. O : ; Y R V.T.(.W.p.` _ ! ^ O.O.O.O.b.b.~ ~ ~ ~ ` ` j.W.W.W.W.W.W.W.W.W.W.W.W.W.W.W.W.W.E.:.* r z 2.H.G.W.W.W.W.W.W.8 $ f c N.H./.(.(.(.W.W.Q.Q.W.W.W.W.",
"W.W.T.. O E E > O s.W.Q.W.W.W.u.$ = d d %.%.@.@.~ ~ ~ ~ z.W.W.W.W.W.W.W.W.W.W.W.W.W.W.W.W.W.W.W.E.:.* r d x b ,.W.W.W.W.W.W.8 * v S s.H.^.Q.Q.Q.W.W.W.W.W.W.W.W.",
"W.Q.T.  . E R > X u.W.E.W.W.Q.s.$ 6 d z %.( O.@.~ ~ ~ ! z.W.W.W.W.W.W.W.W.W.W.W.W.W.W.W.W.W.W.W.E.:.# 7 d x %.,.W.E.W.W.W.W.8 $ S %.C.F.^.Q.T.Q.W.W.W.W.W.W.W.W.",
"W.& u W.T.3 ; K.T.W.W.W.W.W.Q.s.$ 9 %.b * $ E.E.* % % % a N s.W.W.W.W.W.W.W.W.W.W.W.W.W.W.W.W.W.E.R.R.t.* 0 %.,.W.W.W.W.W.W.8 $ v S L.(.Q.Q.Q.Q.W.W.W.W.W.W.W.W.",
"W.X - Q.Q.- O K.W.W.W.W.W.W.W.s.$ 9 %.b $ # E.W.* * $ $ 0 d s.W.W.W.W.W.W.W.W.W.W.W.W.W.W.W.W.W.E.W.W.t.$ 0 %.,.W.W.W.W.W.W.8 $ S F K.E.T.Q.T.Q.W.W.W.W.W.W.W.Q.",
"W.K.K.W.Q.K.k.E.W.W.W.E.W.u.V V a z ( &.K.K.W.W.K.K.k.L.C = s V t.W.W.W.W.W.W.W.W.W.W.W.W.W.W.W.E.e.V z a I Z.F.W.W.W.W.R.W.3 - L.L.Y.Q.Q.Q.Q.Q.Q.Q.Q.Q.Q.(.Q.Q.",
"W.E.Q.W.Q.W.W.W.W.W.W.W.W.e.$ 7 z z %.&.W.W.W.W.W.W.W.W.H * @ O 9.W.W.W.W.W.W.W.W.W.W.W.W.W.W.W.E.:.* r d 2.H.G.W.W.W.T.W.W.= * U.T.T.T.Q.Q.Q.Q.Q.T.Q.Q.Q.Q.T.Q.",
"W.W.W.W.W.W.W.W.W.W.W.W.E.e.$ e d F Y.T.W.W.W.W.W.W.W.W.H @ O O - n t.W.Q.W.W.W.W.W.W.W.W.W.W.W.W.:.* w S q.E.E.W.K.q n n q * * L.T.Q.Q.T.Q.Q.Q.Q.Q.T.Q.Q.Q.Q.Q.",
"W.W.W.W.W.W.W.W.W.W.W.W.E.0.* e d :.E.W.W.W.W.W.W.W.W.W.H O O O O O 0.W.W.W.W.W.W.W.W.W.W.W.W.W.W.:.* w S q.W.W.W.h.O O * $ $ * L.Q.Q.Q.Q.Q.Q.T.Q.T.Q.Q.Q.Q.T.Q.",
"Q.W.W.W.W.W.W.W.W.W.W.W.W.U.f.0.8 a :.0.W.W.W.W.W.W.W.W.K.f.f.d.:.O 0.W.W.W.W.W.W.W.W.W.W.W.W.W.W.:.* 9 x r.E.W.E.h.O O & O f.f.T.Q.Q.T.Q.T.Q.Q.Q.Q.Q.Q.Q.Q.Q.Q.",
"E.Q.W.W.W.W.W.W.W.W.W.W.W.W.W.s.$ 8 z Z Q.W.W.W.W.W.W.W.W.W.W.W.u.O e.W.W.W.W.W.W.W.W.W.W.W.W.W.W.:.* 9 d 0.E.W.E.K.O O o . E.W.Q.Q.Q.Q.Q.Q.Q.(.Q.(.Q.Q.Q.(.Q.Q.",
"W.W.W.W.W.W.W.W.W.W.W.W.W.W.W.s.* 6 d Z Q.W.W.W.W.W.W.W.W.W.W.W.K.y.K.W.W.W.W.W.W.W.W.W.W.W.W.W.W.h.y.J 9 :.W.W.W.U.y.e.X . E.E.^.Q.Q.Q.Q.Q.Q.Q.Q.Q.T.Q.Q.T.Q.T.",
"W.W.W.W.W.W.W.W.W.W.W.W.W.W.W.s.* 8 d Z Q.W.W.W.W.W.W.W.W.W.W.W.W.W.W.W.W.W.W.W.W.W.W.W.W.W.W.W.W.E.E.t.* K W.W.W.W.W.U.X . E.W.Q.Q.Q.Q.T.Q.Q.Q.T.Q.Q.Q.Q.Q.Q.Q.",
"W.W.W.W.W.W.W.W.W.W.W.W.W.W.W.K.0.K r a u.u.Q.W.W.W.W.W.W.W.W.W.W.W.W.W.Q.W.W.W.W.W.W.W.W.W.W.W.W.W.W.t.& V u.s.Q.Q.Q.T.9.9.Q.Q.Q.Q.Q.Q.Q.Q.Q.Q.T.Q.Q.Q.T.Q.Q.Q.",
"W.W.W.W.W.W.W.W.W.W.W.W.W.W.W.W.E.h.O o O . T.Q.W.W.W.W.W.W.W.W.W.W.W.W.W.W.W.W.W.W.W.W.Q.W.W.W.W.W.W.e.O O ; n Q.T.Q.W.W.W.T.Q.Q.T.Q.Q.Q.T.Q.Q.Q.Q.Q.Q.Q.Q.Q.Q.",
"W.W.W.W.W.W.Q.W.W.W.W.W.W.W.W.W.T.K.O O O X d.K.W.W.W.W.W.W.W.W.W.W.W.W.W.W.W.W.W.W.W.W.W.W.W.W.W.W.W.t.O O O n d.K.W.W.W.W.W.W.Q.Q.T.Q.Q.Q.T.(.Q.Q.Q.(.Q.T.(.Q.",
"W.W.W.W.W.W.W.W.W.W.W.W.W.W.W.W.E.K.O O O O X O W.W.W.W.E.W.W.W.W.W.W.W.W.W.W.W.W.W.W.W.W.W.W.W.W.W.W.t.O O O O O G W.W.W.W.W.W.Q.Q.(.Q.Q.Q.Q.Q.Q.Q.Q.T.Q.Q.Q.Q.",
"W.W.W.W.W.W.W.W.W.W.W.W.W.W.W.W.W.K.i i i i i i W.W.W.W.Q.Q.W.W.W.W.W.W.W.W.E.W.W.W.W.W.W.W.W.W.W.W.W.u.i i i i i K W.W.W.W.W.W.(.T.Q.Q.Q.Q.Q.Q.T.Q.Q.Q.Q.T.Q.Q.",
"W.W.W.W.W.W.W.W.Q.W.W.W.W.W.W.W.W.W.W.W.W.W.Q.W.W.W.W.W.E.Q.W.W.W.W.W.W.W.W.W.W.W.W.W.W.W.W.W.W.W.W.W.W.T.W.Q.Q.Q.W.W.W.W.W.W.W.Q.Q.Q.Q.Q.T.Q.Q.Q.Q.Q.Q.Q.Q.Q.Q.",
"W.W.W.W.W.W.W.W.W.W.W.W.W.W.W.W.W.W.W.W.W.W.W.W.W.W.W.W.W.W.W.W.W.W.W.W.Q.W.W.W.Q.W.W.W.W.W.W.W.W.W.W.W.W.W.W.W.E.W.W.W.W.W.W.W.Q.Q.Q.T.Q.Q.Q.T.Q.Q.Q.Q.Q.Q.Q.Q.",
"W.W.W.W.W.W.W.W.W.W.W.W.W.W.W.E.W.W.W.W.W.W.W.W.W.W.W.W.W.Q.E.W.W.W.W.W.W.W.W.W.W.W.W.E.W.W.W.W.W.W.W.W.W.W.W.W.W.W.W.W.W.W.W.W.Q.Q.Q.Q.Q.Q.Q.(.Q.Q.Q.(.T.Q.Q.(.",
"W.W.W.W.W.W.W.W.W.W.W.W.W.W.W.W.W.W.W.W.W.W.W.Q.W.E.W.W.W.W.W.W.W.W.W.Q.W.W.W.W.W.W.W.W.W.W.W.W.W.W.W.W.W.W.W.W.W.W.W.W.W.W.W.W.Q.T.Q.Q.Q.T.Q.Q.Q.Q.Q.Q.Q.Q.Q.T.",
"W.W.W.W.W.W.W.W.E.W.W.W.W.W.W.W.E.W.W.W.W.W.W.W.W.Q.W.W.W.W.W.W.W.W.W.W.E.W.W.W.W.W.W.W.W.W.W.W.W.W.W.W.W.W.W.W.W.W.W.W.W.Q.W.W.Q.Q.Q.Q.Q.Q.Q.Q.T.Q.T.Q.T.Q.Q.Q.",
"W.W.W.W.W.W.W.W.W.W.W.W.W.W.Q.W.W.W.W.W.W.W.W.W.W.W.Q.W.W.W.E.W.W.W.W.W.W.W.W.W.W.W.Q.W.W.W.W.W.W.W.E.W.W.W.W.W.W.W.W.W.W.W.W.W.Q.Q.Q.Q.Q.Q.(.T.Q.Q.(.Q.Q.Q.T.Q.",
"W.W.W.W.W.W.W.W.W.Q.W.W.W.W.W.W.W.W.W.W.W.W.W.W.W.W.W.W.W.W.W.W.W.W.W.W.W.Q.W.W.W.W.W.W.W.W.W.W.W.W.W.W.W.W.W.W.W.W.W.W.W.W.W.W.Q.Q.Q.T.Q.Q.Q.Q.Q.Q.Q.Q.Q.Q.Q.Q.",
"W.W.W.W.W.W.W.W.W.W.W.W.W.W.W.W.W.W.W.W.W.W.W.W.W.W.W.W.W.W.W.W.W.W.W.W.W.Q.W.W.W.W.W.W.W.W.W.W.W.W.W.W.W.W.W.W.W.W.W.W.W.W.W.W.T.(.Q.Q.T.(.Q.Q.Q.Q.Q.Q.Q.Q.Q.Q.",
"W.W.W.W.W.W.W.W.W.W.W.W.W.W.W.W.W.W.W.W.W.W.W.W.W.W.W.W.W.W.W.W.W.W.W.W.W.W.W.W.W.W.W.W.W.W.W.W.W.W.W.W.W.W.W.W.W.W.W.W.W.W.W.W.Q.Q.Q.Q.Q.Q.Q.Q.Q.T.Q.Q.Q.T.Q.Q.",
"W.W.W.W.W.W.W.W.W.W.W.W.W.W.W.W.W.W.W.W.W.W.W.W.W.W.W.W.W.W.W.W.W.W.W.W.W.W.W.W.E.W.W.W.W.W.W.W.W.W.W.W.W.W.W.W.W.W.W.W.W.W.W.W.Q.Q.Q.Q.Q.Q.Q.Q.Q.Q.T.Q.Q.Q.T.Q.",
"W.W.W.W.Q.W.W.W.W.W.W.W.W.W.W.W.W.Q.W.W.W.W.W.W.W.W.W.W.Q.W.W.W.W.W.W.W.W.W.W.W.W.W.W.W.W.W.W.W.W.W.W.W.W.W.W.W.W.W.W.W.W.W.W.W.Q.Q.Q.T.Q.Q.Q.T.Q.Q.(.Q.Q.Q.(.Q."
};
